<?xml version="1.0" standalone="no"?>
<!DOCTYPE svg PUBLIC "-//W3C//DTD SVG 20010904//EN"
 "http://www.w3.org/TR/2001/REC-SVG-20010904/DTD/svg10.dtd">
<svg version="1.0" xmlns="http://www.w3.org/2000/svg"
 width="600.000000pt" height="600.000000pt" viewBox="0 0 600.000000 600.000000"
 preserveAspectRatio="xMidYMid meet">

<g transform="translate(0.000000,600.000000) scale(0.100000,-0.100000)"
fill="#000000" stroke="none">
<path d="M3160 5051 c0 -5 6 -12 13 -14 9 -4 9 -6 0 -6 -6 -1 -15 4 -18 9 -3
6 -14 10 -23 9 -11 0 -12 -2 -4 -6 7 -2 17 -14 23 -25 l11 -21 -28 20 c-34 23
-74 35 -74 22 0 -6 -8 -5 -19 1 -26 13 -34 13 -25 -2 5 -8 0 -7 -11 2 -12 10
-19 11 -22 4 -3 -8 -15 -9 -40 -3 -20 4 -42 5 -47 1 -14 -8 -56 -8 -83 0 -15
5 -22 4 -20 -4 1 -8 -18 -12 -60 -12 -40 -1 -58 -5 -53 -11 5 -6 -9 -11 -38
-13 -26 -2 -51 -7 -56 -13 -6 -5 -18 -9 -27 -9 -26 0 -31 -27 -6 -34 15 -4 18
-9 11 -16 -7 -7 -28 -7 -68 1 -32 6 -61 8 -64 5 -3 -3 2 -6 11 -6 10 0 17 -4
17 -9 0 -12 -37 -24 -50 -16 -5 3 -10 2 -10 -2 0 -5 -11 -21 -25 -36 -14 -15
-21 -27 -15 -27 5 0 10 -4 10 -10 0 -6 -3 -9 -7 -9 -27 4 -63 -3 -58 -11 3 -5
-6 -12 -20 -16 -13 -3 -22 -10 -19 -15 3 -5 -4 -9 -15 -9 -12 0 -21 -7 -21
-15 0 -8 -6 -15 -14 -15 -8 0 -24 -9 -37 -20 -21 -17 -21 -19 -4 -13 18 6 18
5 6 -10 -7 -9 -20 -17 -28 -17 -8 0 -11 -4 -8 -10 3 -5 2 -10 -3 -10 -5 0 -25
-13 -43 -30 -26 -23 -30 -30 -16 -30 14 0 11 -6 -14 -31 -25 -25 -29 -33 -18
-40 10 -6 7 -9 -11 -9 -18 0 -21 -3 -12 -9 11 -6 10 -10 -4 -15 -14 -5 -15 -9
-6 -15 9 -6 3 -15 -22 -34 -46 -36 -68 -58 -62 -65 3 -2 12 1 20 7 12 10 14 9
12 -4 -1 -10 -22 -35 -45 -56 -45 -42 -59 -76 -36 -86 11 -4 7 -15 -19 -47
-18 -22 -41 -63 -50 -90 -19 -58 -19 -59 -6 -51 19 12 10 -14 -17 -47 -15 -18
-20 -27 -13 -20 8 6 17 12 21 12 9 0 -16 -63 -39 -99 -17 -25 -21 -43 -25
-108 -1 -17 -5 -29 -9 -27 -3 2 -6 -20 -5 -51 1 -34 7 -57 14 -60 7 -2 13 0
13 4 0 5 7 12 16 15 10 4 13 2 7 -7 -9 -15 -12 -31 -17 -84 -4 -44 1 -51 22
-33 9 7 9 7 2 -2 -12 -14 -13 -31 -2 -25 12 8 27 -17 26 -43 0 -14 5 -35 13
-48 8 -12 11 -27 8 -32 -8 -13 6 -61 16 -54 5 3 9 1 9 -4 0 -6 6 -12 14 -15
10 -4 12 1 9 16 -2 12 3 7 11 -12 9 -18 16 -44 16 -57 0 -23 52 -131 105 -218
l23 -39 4 66 c1 37 -1 67 -6 67 -5 0 -4 6 1 13 6 6 10 66 10 133 0 67 4 127 9
135 9 15 11 24 19 89 7 61 13 105 15 105 6 0 11 59 14 171 2 72 7 138 12 145
11 17 23 40 54 97 12 23 30 46 39 51 9 5 16 13 16 18 0 4 3 7 8 6 4 -2 7 3 7
10 0 13 16 29 91 93 25 22 44 45 42 51 -2 6 3 13 12 16 8 4 15 2 15 -3 0 -18
20 -10 21 8 0 11 2 12 6 4 4 -10 8 -10 19 -1 11 9 14 8 15 -7 0 -15 2 -16 7
-4 4 8 18 16 32 18 48 5 75 10 95 17 l20 7 -20 -19 c-39 -36 -49 -57 -12 -25
41 35 60 41 50 15 -4 -9 -2 -14 3 -10 17 10 94 -14 94 -29 0 -8 -4 -14 -10
-14 -5 0 -10 -13 -10 -30 0 -32 16 -41 23 -12 4 16 5 16 6 0 1 -12 9 -18 25
-18 14 0 27 -4 30 -8 3 -5 28 -6 55 -2 28 3 49 4 47 2 -8 -7 56 -63 67 -59 7
2 18 -3 25 -12 11 -14 13 -14 27 3 13 17 15 17 15 3 0 -9 -8 -21 -17 -27 -16
-10 -16 -11 2 -5 48 16 65 13 65 -11 0 -25 25 -33 33 -11 4 9 8 9 14 0 4 -6
27 -19 51 -28 23 -10 42 -24 42 -31 0 -8 7 -17 15 -20 8 -3 17 -15 21 -27 8
-25 28 -47 43 -47 14 0 43 -44 39 -61 -2 -7 8 -18 21 -25 13 -7 29 -20 34 -29
6 -12 16 -15 34 -10 18 4 24 2 21 -7 -3 -7 -15 -12 -26 -10 -28 4 -28 -12 -2
-36 12 -11 18 -26 14 -35 -7 -20 34 -77 52 -70 8 3 14 -1 14 -11 0 -9 5 -16
12 -16 6 0 9 -3 6 -6 -4 -3 -15 -1 -25 4 -15 9 -19 7 -20 -8 -1 -14 3 -17 15
-13 14 5 15 4 4 -8 -10 -11 -16 -11 -33 0 -18 10 -20 10 -17 -1 3 -7 -5 -18
-16 -24 -12 -6 -20 -16 -18 -23 1 -7 -2 -10 -8 -6 -6 4 -20 -5 -31 -19 -11
-14 -27 -26 -35 -26 -20 0 -18 -27 4 -40 14 -9 13 -10 -8 -5 -17 4 -21 3 -11
-3 7 -5 11 -14 7 -20 -3 -6 -2 -13 4 -17 16 -10 12 -22 -12 -45 -17 -16 -34
-21 -68 -19 -63 2 -80 -7 -80 -45 0 -17 -7 -41 -15 -54 -16 -22 -18 -112 -2
-112 5 0 5 -6 1 -12 -10 -16 -10 -50 -1 -65 4 -6 3 -14 -3 -18 -6 -4 -4 -14 5
-29 8 -13 16 -41 18 -63 1 -26 6 -39 14 -36 9 3 10 -11 6 -54 -3 -32 -9 -60
-13 -63 -14 -10 -21 -60 -8 -61 7 0 4 -4 -7 -9 -19 -7 -18 -9 9 -19 22 -9 26
-14 17 -25 -18 -21 -11 -98 7 -91 12 4 12 3 3 -9 -7 -8 -11 -28 -9 -43 2 -23
-1 -27 -16 -25 -14 3 -17 -1 -13 -12 4 -9 2 -16 -3 -16 -6 0 -10 -7 -10 -16 0
-14 3 -14 15 -4 18 15 20 -1 3 -18 -9 -9 -9 -12 2 -12 9 0 7 -7 -8 -23 -16
-17 -31 -23 -57 -21 -32 3 -34 1 -25 -16 6 -11 9 -24 8 -31 -2 -6 3 -14 10
-16 6 -3 12 2 12 11 0 22 20 31 35 15 7 -8 18 -30 24 -48 9 -28 9 -38 -2 -48
-19 -20 -47 -5 -54 28 -5 28 -23 41 -23 17 0 -7 -12 -24 -26 -39 -26 -27 -26
-49 0 -49 7 0 21 -9 31 -20 24 -27 34 -25 46 7 6 17 13 23 20 16 13 -13 -12
-61 -30 -55 -9 3 -12 0 -9 -10 4 -8 -2 -21 -12 -28 -14 -10 -16 -18 -9 -32 8
-15 6 -18 -11 -18 -11 0 -23 7 -26 15 -4 10 -13 13 -24 10 -20 -6 -90 19 -101
37 -5 8 -26 6 -76 -7 -37 -10 -89 -18 -115 -17 -27 1 -48 -2 -48 -8 0 -5 -6
-7 -14 -4 -8 3 -17 1 -20 -4 -9 -15 23 -19 92 -12 38 3 67 2 74 -5 8 -7 9 -6
3 4 -6 11 -2 13 19 9 14 -3 26 -1 26 3 0 5 5 9 11 9 5 0 8 -3 6 -7 -3 -5 11
-9 31 -11 20 -1 38 -6 42 -10 3 -4 17 -13 32 -21 15 -8 25 -18 22 -23 -3 -4 0
-8 5 -8 6 0 11 7 11 15 0 13 3 13 20 3 16 -10 19 -21 15 -66 -5 -66 8 -107 32
-98 14 6 14 4 2 -10 -11 -14 -10 -16 6 -14 39 4 56 0 62 -17 4 -10 15 -25 25
-34 28 -26 21 -46 -14 -40 -5 0 -8 -4 -8 -9 0 -6 4 -10 8 -10 5 0 7 -24 6 -53
-4 -70 -6 -77 -17 -77 -5 0 -4 -7 3 -15 10 -12 10 -15 -4 -15 -9 0 -16 -3 -16
-7 0 -5 -10 -9 -22 -10 -13 -2 -40 -5 -60 -7 -21 -2 -38 0 -38 5 0 6 -6 4 -14
-3 -11 -11 -6 -15 31 -23 44 -10 60 -29 26 -31 -10 -1 -28 -4 -41 -8 -22 -7
-22 -9 -5 -21 10 -7 21 -11 25 -9 5 3 8 -2 8 -10 0 -8 8 -20 18 -26 15 -9 14
-13 -14 -38 -30 -26 -37 -53 -20 -80 4 -6 4 -12 0 -12 -3 0 -1 -6 5 -14 9 -10
8 -15 -4 -20 -8 -3 -15 0 -15 7 0 8 -4 7 -10 -3 -8 -12 -11 -13 -19 -1 -6 9
-10 10 -16 2 -5 -9 -10 -9 -20 -1 -9 8 -12 5 -10 -14 3 -22 -1 -25 -28 -24
-18 0 -45 11 -62 23 -16 12 -44 29 -60 37 -41 22 -306 282 -342 338 -42 63
-78 137 -92 192 -8 29 -26 58 -49 80 -19 18 -32 28 -28 21 3 -6 1 -15 -4 -18
-7 -5 -5 -12 7 -22 17 -14 17 -14 -4 -10 -13 3 -23 1 -23 -4 0 -5 -9 -9 -20
-9 -12 0 -55 -13 -98 -29 -42 -16 -124 -43 -182 -61 -140 -43 -204 -64 -270
-90 -75 -30 -136 -47 -191 -55 -26 -3 -72 -21 -105 -41 -32 -19 -90 -49 -129
-65 -192 -82 -234 -103 -229 -110 3 -5 -2 -6 -10 -3 -11 4 -16 0 -16 -11 0 -9
-5 -13 -10 -10 -14 9 -58 -20 -92 -59 -15 -17 -27 -26 -28 -19 0 6 6 14 13 16
7 3 8 6 1 6 -6 1 -31 -16 -55 -37 -24 -21 -60 -49 -79 -62 -19 -13 -72 -58
-118 -100 -76 -69 -88 -84 -136 -185 -29 -60 -63 -137 -76 -170 -12 -33 -27
-74 -35 -90 -35 -83 -145 -538 -145 -602 0 -13 -4 -23 -10 -23 -5 0 -10 -7
-10 -15 0 -13 327 -15 2880 -15 l2880 0 0 229 0 229 -31 73 c-17 41 -38 90
-47 109 -8 19 -60 97 -114 173 -54 75 -98 141 -98 146 0 10 -233 222 -303 274
-126 95 -273 164 -572 267 -115 40 -237 84 -270 97 -96 39 -259 97 -415 148
-80 25 -154 52 -165 60 -13 8 -31 46 -49 103 l-30 91 36 78 c41 89 51 116 72
195 21 75 57 288 51 298 -3 5 6 22 21 39 34 41 43 113 37 287 -5 148 -3 162
52 292 14 35 31 91 36 125 6 34 16 71 24 83 7 11 19 39 25 61 9 28 17 40 26
36 9 -3 14 2 14 16 0 12 5 21 10 21 6 0 10 -6 10 -12 0 -7 7 0 15 15 8 15 12
34 8 42 -3 8 0 15 5 15 6 0 10 16 8 38 -1 20 1 49 5 64 4 14 5 29 2 32 -5 5
-13 58 -15 96 0 8 -5 20 -10 27 -5 7 -7 17 -4 22 4 5 0 28 -8 50 -7 23 -10 41
-5 41 5 0 3 17 -5 38 -8 20 -17 46 -22 57 -4 11 -8 25 -8 30 -3 22 -32 71 -48
83 -18 13 -14 46 6 36 6 -3 0 4 -12 15 -22 19 -23 22 -7 38 16 15 16 17 -5 33
-16 12 -19 19 -10 22 10 3 9 11 -4 36 -9 18 -22 32 -29 32 -7 1 -6 5 4 13 11
8 14 18 8 32 -4 11 -8 16 -8 12 -1 -4 -11 -2 -23 4 -21 11 -21 13 -4 19 15 5
7 12 -37 35 -36 19 -54 34 -52 45 2 10 -4 16 -17 17 -24 2 -50 22 -43 33 7 11
-57 50 -80 50 -14 0 -15 3 -5 15 11 13 8 15 -19 15 -18 0 -30 4 -27 9 3 5 15
7 25 4 10 -3 22 0 25 6 4 6 -4 9 -24 6 -23 -3 -30 0 -30 13 0 15 -2 15 -11 2
-9 -12 -10 -12 -5 3 3 10 6 21 6 23 0 2 10 4 23 4 16 0 18 3 8 9 -10 6 -10 10
-1 16 9 6 9 9 -1 15 -7 5 -22 2 -36 -7 -13 -8 -23 -11 -23 -5 0 6 4 12 9 14 4
2 11 13 15 25 6 18 4 20 -14 16 -15 -4 -20 -1 -20 16 0 24 -10 27 -29 9 -12
-11 -13 -9 -7 7 5 17 3 16 -12 -4 -16 -20 -20 -21 -25 -7 -4 10 -1 19 7 22 8
3 17 12 20 20 5 14 -71 -40 -86 -61 -4 -5 -17 -11 -28 -11 -16 -1 -19 3 -14
19 5 16 3 19 -11 13 -14 -5 -16 -2 -11 16 18 65 17 73 -3 38 l-19 -35 -16 35
c-8 19 -15 29 -16 22 0 -7 -9 -22 -19 -33 -21 -23 -23 -21 -53 41 l-16 35 -1
-30 -1 -30 -24 25 c-13 14 -21 30 -19 36 2 6 -3 17 -12 24 -12 10 -15 10 -15
-1 0 -10 -3 -10 -12 -1 -16 16 -62 16 -52 0 4 -7 3 -8 -5 -4 -6 4 -9 11 -6 16
3 5 1 11 -5 15 -5 3 -10 1 -10 -6 0 -7 -9 -9 -22 -6 -12 4 -28 1 -35 -5 -13
-10 -14 -9 -17 14 -2 20 -86 58 -86 39z m572 -223 c-7 -7 -12 -8 -12 -2 0 6 3
14 7 17 3 4 9 5 12 2 2 -3 -1 -11 -7 -17z m115 -154 c-3 -3 -12 -4 -19 -1 -8
3 -5 6 6 6 11 1 17 -2 13 -5z m-1347 -355 c0 -5 -7 -9 -15 -9 -9 0 -12 6 -9
15 6 15 24 11 24 -6z m327 -135 c-3 -3 -12 -4 -19 -1 -8 3 -5 6 6 6 11 1 17
-2 13 -5z m713 -579 c-7 -9 -15 -13 -17 -11 -7 7 7 26 19 26 6 0 6 -6 -2 -15z
m17 -41 c-3 -3 -12 -4 -19 -1 -8 3 -5 6 6 6 11 1 17 -2 13 -5z m-203 -189 c11
-8 15 -15 10 -15 -6 0 -19 7 -30 15 -10 8 -14 14 -9 14 6 0 19 -6 29 -14z
m103 -101 c-3 -3 -12 -4 -19 -1 -8 3 -5 6 6 6 11 1 17 -2 13 -5z m82 -16 c10
-17 9 -19 -6 -17 -10 2 -28 -3 -41 -9 -12 -7 -26 -10 -31 -7 -5 3 -12 -1 -14
-7 -3 -8 -6 -6 -6 5 -1 9 -6 17 -12 17 -5 0 -7 5 -4 10 3 6 15 10 26 10 10 0
19 4 19 8 0 17 57 8 69 -10z m36 -17 c-2 -2 -11 3 -19 12 -8 8 -12 17 -9 21 3
3 12 -2 19 -12 7 -9 11 -19 9 -21z m535 -195 c0 -75 -10 -69 -11 7 -1 32 -5
57 -9 57 -4 0 -7 7 -7 16 0 14 2 14 14 -2 7 -10 13 -44 13 -78z m-15 -66 c19
-37 19 -106 1 -142 -8 -15 -13 -39 -10 -53 2 -14 0 -25 -5 -25 -15 0 -18 60
-5 100 11 35 10 54 -2 118 -8 40 1 41 21 2z m-373 -368 c17 -12 25 -52 12 -64
-3 -3 -19 -1 -35 6 -27 9 -30 15 -25 40 3 16 6 38 6 50 1 21 1 21 12 1 6 -11
20 -26 30 -33z m-225 6 c-3 -8 -6 -5 -6 6 -1 11 2 17 5 13 3 -3 4 -12 1 -19z
m-170 -174 c-3 -3 -12 -4 -19 -1 -8 3 -5 6 6 6 11 1 17 -2 13 -5z m533 -76 c0
-28 -2 -49 -4 -47 -8 9 -13 99 -5 99 5 0 9 -23 9 -52z m-1600 -558 c0 -5 -5
-10 -11 -10 -5 0 -7 5 -4 10 3 6 8 10 11 10 2 0 4 -4 4 -10z m-1120 -400 c-8
-5 -19 -10 -25 -10 -5 0 -3 5 5 10 8 5 20 10 25 10 6 0 3 -5 -5 -10z m-40 -14
c0 -2 -7 -7 -16 -10 -8 -3 -12 -2 -9 4 6 10 25 14 25 6z"/>
<path d="M3478 3243 c7 -3 16 -2 19 1 4 3 -2 6 -13 5 -11 0 -14 -3 -6 -6z"/>
<path d="M4680 4939 c-36 -22 -86 -48 -112 -57 -47 -16 -48 -18 -48 -59 0 -28
4 -43 13 -43 18 1 94 36 128 61 l29 20 0 -310 0 -311 45 0 45 0 0 370 c0 425
9 396 -100 329z"/>
<path d="M3523 4924 c-3 -8 -2 -19 3 -24 5 -5 9 1 9 16 0 28 -3 30 -12 8z"/>
<path d="M3597 4923 c-4 -3 -7 -11 -7 -17 0 -6 5 -5 12 2 6 6 9 14 7 17 -3 3
-9 2 -12 -2z"/>
<path d="M1859 4223 c-13 -16 -12 -17 4 -4 9 7 17 15 17 17 0 8 -8 3 -21 -13z"/>
<path d="M2848 4153 c7 -3 16 -2 19 1 4 3 -2 6 -13 5 -11 0 -14 -3 -6 -6z"/>
<path d="M2787 4144 c-12 -12 6 -34 28 -34 27 0 41 26 19 34 -20 8 -39 8 -47
0z"/>
<path d="M3357 3754 c-4 -4 -7 -14 -7 -23 0 -11 3 -12 11 -4 6 6 10 16 7 23
-2 6 -7 8 -11 4z"/>
<path d="M3251 3734 c0 -11 3 -14 6 -6 3 7 2 16 -1 19 -3 4 -6 -2 -5 -13z"/>
<path d="M3418 3583 c7 -3 16 -2 19 1 4 3 -2 6 -13 5 -11 0 -14 -3 -6 -6z"/>
<path d="M2335 3545 c-11 -8 -30 -22 -42 -31 -13 -9 -23 -23 -23 -30 0 -7 -10
-19 -22 -25 -29 -16 -72 -59 -58 -59 6 0 9 -4 6 -9 -3 -5 1 -11 9 -15 8 -3 14
0 12 6 -1 7 3 12 8 13 6 0 16 4 23 9 7 4 16 5 19 2 3 -3 13 3 22 12 9 10 12
12 7 5 -9 -14 2 -17 29 -7 13 6 14 9 3 16 -10 8 -10 9 2 5 8 -2 14 -11 12 -19
-1 -11 5 -14 23 -13 45 5 16 -13 -41 -26 -30 -7 -57 -16 -59 -20 -3 -4 11 -3
30 1 20 4 38 4 41 -1 3 -5 14 -4 26 2 15 8 19 8 14 0 -5 -7 1 -11 14 -11 12 0
18 -4 15 -10 -3 -5 1 -10 9 -10 9 0 16 5 16 10 0 6 8 10 18 10 14 0 15 -2 2
-10 -13 -9 -13 -10 1 -10 8 0 20 5 25 10 6 6 26 12 46 14 19 2 41 6 47 11 7 4
47 4 89 0 69 -6 75 -6 63 9 -12 14 -10 15 17 10 17 -4 32 -1 36 5 4 6 13 11
19 11 7 0 6 -4 -3 -10 -16 -10 -1 -14 22 -5 10 4 13 16 10 35 -4 25 -10 31
-40 36 -31 6 -34 8 -17 15 13 5 2 7 -29 4 -44 -4 -47 -3 -35 12 12 14 12 15
-6 7 -11 -5 -27 -9 -35 -8 -8 1 -23 2 -34 3 -14 1 -16 4 -8 14 9 10 0 12 -40
10 -27 -2 -58 -8 -68 -13 -24 -13 -30 -13 -30 0 0 6 8 10 17 10 14 0 15 2 4
13 -10 10 -15 8 -26 -7 -8 -11 -20 -16 -30 -12 -9 3 -13 2 -10 -4 3 -6 1 -10
-4 -11 -43 -3 -82 -1 -88 4 -12 13 -22 7 -17 -10 5 -16 4 -16 -6 0 -15 23 5
50 31 42 9 -3 21 0 25 6 4 8 3 9 -4 5 -7 -4 -12 -3 -12 3 0 5 6 12 13 14 8 4
7 6 -3 6 -8 0 -24 -6 -35 -14z m-31 -61 c5 -14 4 -15 -9 -4 -17 14 -19 20 -6
20 5 0 12 -7 15 -16z m293 10 c-3 -3 -12 -4 -19 -1 -8 3 -5 6 6 6 11 1 17 -2
13 -5z m-158 -29 c-3 -2 -23 -12 -45 -21 -40 -17 -41 -10 -2 12 22 12 56 19
47 9z m368 -41 c-3 -3 -12 -4 -19 -1 -8 3 -5 6 6 6 11 1 17 -2 13 -5z"/>
<path d="M2390 3524 c-14 -7 -34 -11 -45 -8 -16 5 -17 4 -8 -6 13 -14 49 -8
78 14 25 19 9 19 -25 0z"/>
<path d="M2720 3490 c0 -5 5 -10 10 -10 6 0 10 5 10 10 0 6 -4 10 -10 10 -5 0
-10 -4 -10 -10z"/>
<path d="M2564 3344 c-10 -8 -13 -13 -6 -9 6 3 12 1 12 -4 0 -6 13 -11 29 -11
18 0 31 -6 35 -16 5 -13 3 -14 -6 -7 -16 13 -68 23 -68 14 0 -4 11 -11 24 -17
23 -8 23 -10 8 -24 -14 -13 -15 -12 -9 3 7 18 -1 21 -27 11 -9 -3 -13 -10 -10
-15 3 -5 0 -9 -5 -9 -6 0 -11 -4 -11 -10 0 -15 28 0 33 18 4 13 5 12 6 -3 0
-12 -5 -27 -11 -34 -11 -10 -10 -12 2 -11 8 1 22 1 30 0 8 -1 -20 -8 -64 -15
-98 -17 -203 -54 -184 -66 11 -7 11 -9 0 -9 -30 0 21 -33 54 -35 21 -1 43 -11
55 -24 24 -25 66 -44 80 -35 5 3 9 0 9 -6 0 -6 4 -9 10 -5 17 10 57 -6 57 -23
0 -37 4 -42 26 -38 12 2 28 -1 35 -7 30 -24 112 -11 96 14 -4 8 -1 8 13 1 17
-9 19 -7 21 25 2 20 11 42 20 49 11 8 12 13 5 14 -8 0 -13 13 -13 33 l1 32 14
-25 c8 -14 14 -32 15 -41 0 -9 6 -22 14 -28 12 -10 19 -8 34 7 34 34 20 88
-34 140 -25 23 -50 42 -55 42 -6 0 -7 4 -4 10 3 5 -7 12 -22 16 -58 13 -62 15
-58 35 3 16 0 19 -17 13 -14 -4 -18 -2 -14 5 5 7 -1 11 -14 11 -24 0 -61 29
-38 31 7 0 4 4 -7 9 -29 13 -39 12 -61 -6z m46 -4 c0 -5 -4 -10 -9 -10 -6 0
-13 5 -16 10 -3 6 1 10 9 10 9 0 16 -4 16 -10z m-57 -191 c3 -2 8 -15 12 -29
7 -23 7 -24 -11 -10 -13 11 -12 6 6 -19 l24 -34 -34 7 c-19 3 -47 18 -62 33
-25 24 -27 28 -12 44 13 15 66 21 77 8z"/>
<path d="M2825 3030 c3 -5 8 -10 11 -10 2 0 4 5 4 10 0 6 -5 10 -11 10 -5 0
-7 -4 -4 -10z"/>
<path d="M2022 2980 c0 -19 2 -27 5 -17 2 9 2 25 0 35 -3 9 -5 1 -5 -18z"/>
<path d="M3145 2780 c-3 -5 -1 -10 4 -10 6 0 11 5 11 10 0 6 -2 10 -4 10 -3 0
-8 -4 -11 -10z"/>
<path d="M2880 2435 c0 -12 10 -15 45 -14 46 3 58 12 29 23 -31 12 -74 7 -74
-9z"/>
<path d="M3010 2080 c0 -5 5 -10 11 -10 5 0 7 5 4 10 -3 6 -8 10 -11 10 -2 0
-4 -4 -4 -10z"/>
<path d="M3035 1890 c3 -5 8 -10 11 -10 2 0 4 5 4 10 0 6 -5 10 -11 10 -5 0
-7 -4 -4 -10z"/>
</g>
</svg>
