<?xml version="1.0" standalone="no"?>
<!DOCTYPE svg PUBLIC "-//W3C//DTD SVG 20010904//EN"
 "http://www.w3.org/TR/2001/REC-SVG-20010904/DTD/svg10.dtd">
<svg version="1.0" xmlns="http://www.w3.org/2000/svg"
 width="540.000000pt" height="539.000000pt" viewBox="0 0 540.000000 539.000000"
 preserveAspectRatio="xMidYMid meet">

<g transform="translate(0.000000,539.000000) scale(0.100000,-0.100000)"
fill="#000000" stroke="none">
<path d="M2011 5358 c-6 -18 -26 -44 -44 -58 -42 -32 -178 -169 -197 -199 -8
-13 -23 -34 -33 -46 -26 -35 -110 -220 -137 -300 -14 -44 -35 -83 -55 -105
-38 -40 -96 -152 -116 -225 -18 -67 -19 -334 -1 -396 13 -44 12 -53 -17 -146
-37 -118 -56 -256 -46 -333 20 -156 12 -224 -49 -398 -14 -41 -25 -86 -25
-100 l2 -27 4 25 c5 28 23 52 23 31 0 -7 5 -9 11 -5 7 4 28 8 48 10 19 1 37 8
39 13 2 6 8 9 13 5 5 -3 9 1 9 8 0 10 2 11 8 0 7 -10 14 -10 37 2 26 14 29 13
45 -7 9 -12 22 -37 30 -55 14 -36 9 -62 -31 -166 -21 -53 -24 -76 -10 -76 5 0
9 -45 9 -99 0 -55 2 -104 5 -108 3 -5 7 -44 8 -87 1 -59 6 -80 19 -89 23 -16
40 -51 40 -80 0 -14 7 -27 15 -31 11 -4 15 -20 14 -63 l-1 -58 -8 53 c-8 55
-20 80 -21 46 -1 -27 -20 18 -29 71 l-7 40 -2 -35 c0 -19 6 -55 15 -80 17 -49
24 -88 29 -165 2 -27 4 -50 5 -50 1 0 3 -8 5 -17 2 -13 -3 -17 -18 -15 -25 2
-36 -35 -17 -58 9 -10 7 -14 -6 -17 -17 -3 -17 -4 0 -20 17 -17 17 -18 0 -18
-14 0 -15 -3 -6 -12 14 -14 16 -32 3 -23 -6 3 -8 -11 -6 -34 3 -30 0 -39 -10
-35 -21 9 -30 -18 -10 -32 20 -15 17 -20 -33 -76 -26 -28 -23 -51 6 -42 12 4
13 3 5 -3 -10 -7 -10 -13 2 -29 12 -15 14 -16 15 -3 0 12 8 14 30 11 17 -2 31
-8 31 -13 1 -5 2 -13 3 -18 0 -5 4 -13 9 -17 4 -4 7 -14 7 -23 -1 -14 -3 -13
-14 2 -14 18 -15 17 -21 -3 -4 -12 -2 -27 4 -33 6 -6 11 -21 11 -33 0 -13 5
-26 10 -29 7 -4 7 -13 0 -26 -9 -15 -7 -19 7 -19 10 0 24 -4 32 -9 12 -8 12
-12 2 -25 -11 -14 -15 -14 -28 -1 -8 9 -19 13 -24 10 -5 -4 -9 5 -9 18 0 14
-7 27 -17 31 -10 3 -25 9 -33 12 -13 5 -13 4 0 -8 21 -19 52 -77 46 -87 -3 -4
5 -14 19 -21 23 -12 23 -13 7 -47 -13 -27 -18 -30 -25 -18 -4 8 -14 12 -20 8
-8 -5 -8 -2 1 9 10 12 8 20 -13 42 -32 34 -35 33 -22 -9 9 -31 8 -36 -14 -55
-13 -11 -53 -34 -89 -51 -36 -17 -71 -36 -79 -42 -7 -6 -21 -12 -30 -12 -45
-2 -121 -19 -121 -26 0 -5 -27 -9 -60 -9 -33 0 -60 -4 -60 -10 0 -5 -7 -7 -15
-4 -14 6 -14 8 1 19 14 10 4 13 -61 18 -43 4 -113 7 -156 7 -67 0 -82 -3 -103
-22 -31 -28 -48 -92 -22 -82 9 3 16 10 16 15 0 5 10 7 23 5 12 -2 28 1 34 6 7
6 41 14 75 19 35 5 82 12 106 15 34 5 42 4 40 -7 -3 -15 -31 -30 -61 -34 -11
-1 -16 3 -13 11 3 9 -3 10 -24 4 -16 -4 -31 -6 -33 -3 -3 3 -13 -7 -22 -21
-10 -14 -22 -26 -27 -26 -6 0 -4 8 3 18 12 15 12 16 -2 4 -10 -7 -30 -10 -51
-7 -27 5 -38 1 -57 -19 l-24 -25 26 -6 c14 -4 31 -4 36 0 17 10 13 -3 -8 -24
-19 -19 -19 -19 -25 2 -5 21 -6 21 -19 3 -10 -13 -16 -15 -21 -8 -4 7 -4 16
-1 22 3 5 1 10 -5 10 -13 0 -29 -40 -23 -57 3 -7 -2 -13 -11 -13 -9 0 -16 -7
-16 -15 0 -8 5 -15 11 -15 8 0 8 -5 -1 -15 -7 -8 -17 -15 -23 -15 -6 0 -8 3
-4 6 7 8 -16 33 -25 28 -4 -3 -13 4 -20 16 -14 22 -63 28 -72 8 -5 -10 -7 -10
-12 0 -9 20 -27 14 -21 -8 6 -23 -11 -27 -19 -5 -9 22 -18 19 -37 -15 -18 -30
-53 -40 -73 -20 -6 6 -10 3 -11 -9 -1 -11 7 -27 18 -37 10 -9 19 -22 19 -27 0
-6 -10 -1 -23 11 -13 12 -28 22 -34 22 -6 0 -9 17 -7 40 2 36 0 40 -22 40 -13
0 -24 -5 -24 -11 0 -6 7 -9 15 -5 11 4 15 -2 15 -20 0 -19 -4 -25 -15 -20 -8
3 -22 3 -30 0 -19 -8 -19 -34 0 -34 8 0 15 5 15 10 0 6 7 10 15 10 22 0 18
-21 -5 -27 -11 -3 -20 -10 -20 -17 0 -6 -4 -4 -10 4 -12 20 -20 10 -25 -34 -4
-27 -1 -36 10 -36 8 0 15 -5 15 -11 0 -11 -41 -2 -50 12 -4 6 -51 -1 -110 -18
-28 -8 28 -39 66 -37 19 2 34 -1 34 -6 0 -6 9 -10 20 -10 12 0 20 -7 20 -17 0
-10 -4 -14 -8 -8 -4 6 -20 11 -37 12 -16 1 -50 4 -75 8 -41 5 -46 4 -56 -18
-12 -28 -8 -47 12 -47 8 0 14 -4 14 -9 0 -8 81 -41 101 -41 4 0 10 10 12 22
l4 23 2 -23 c0 -12 -6 -25 -14 -28 -10 -4 -13 -13 -10 -25 4 -11 2 -19 -4 -19
-10 0 -15 13 -12 32 0 6 -49 20 -66 19 -5 -1 -9 -5 -9 -11 -1 -5 -2 -15 -3
-21 0 -5 -6 -7 -11 -4 -15 9 -51 -5 -44 -17 4 -6 1 -13 -5 -17 -18 -11 -2 -40
25 -47 13 -3 24 -10 24 -15 0 -11 -3 -11 -33 0 l-25 10 0 -144 c-1 -122 1
-143 13 -138 8 3 15 0 15 -6 0 -6 -7 -11 -15 -11 -18 0 -20 -16 -2 -24 9 -5 9
-7 0 -12 -7 -3 -13 -18 -13 -32 0 -19 3 -23 9 -13 5 8 11 9 15 3 8 -13 -3 -42
-15 -42 -5 0 -9 -9 -9 -20 0 -11 7 -20 15 -20 8 0 15 4 15 9 0 5 8 8 18 6 9
-1 23 3 31 9 12 9 14 8 9 -4 -5 -12 7 -15 63 -16 55 -1 69 1 72 15 4 14 5 14
6 -1 1 -21 21 -23 40 -5 11 9 13 9 7 0 -5 -9 0 -13 13 -13 12 0 21 5 21 11 0
8 4 8 13 1 7 -6 86 -11 197 -12 181 -1 185 0 202 22 l18 23 0 -22 c0 -22 1
-22 182 -22 158 0 183 2 195 17 12 16 13 16 7 -1 -6 -16 0 -18 70 -16 42 1 76
6 76 10 0 5 5 9 11 9 5 0 8 -4 4 -9 -3 -6 119 -10 322 -10 l328 -1 17 63 c25
91 38 163 38 207 0 40 38 233 65 330 9 30 17 73 19 95 8 77 9 80 16 20 4 -40
7 -6 7 105 1 113 7 188 18 235 8 38 13 82 9 98 -9 41 4 148 21 170 7 10 31 21
52 24 32 4 42 1 65 -24 14 -15 40 -55 56 -88 34 -68 41 -134 48 -425 4 -166
19 -419 22 -367 l2 27 160 -2 161 -3 102 105 c205 212 229 239 222 249 -3 6 0
9 8 6 13 -6 57 37 90 87 9 16 48 58 85 94 37 37 58 61 47 53 -11 -8 -22 -16
-25 -19 -18 -19 -101 -81 -131 -98 -94 -53 -128 -62 -217 -62 -81 0 -182 23
-198 45 -6 8 -16 15 -23 15 -6 0 -11 5 -11 10 0 6 -7 10 -15 10 -8 0 -15 3
-15 8 0 4 -34 23 -74 42 -41 19 -77 42 -80 50 -9 24 -30 54 -43 63 -7 4 -13
14 -13 22 0 8 -5 17 -12 21 -7 5 -9 2 -4 -7 4 -8 1 -5 -8 5 -8 10 -13 23 -10
27 3 5 0 9 -5 9 -6 0 -11 5 -11 11 0 19 -52 132 -75 164 -12 17 -36 57 -54 90
-18 33 -39 63 -46 67 -7 4 -10 18 -8 32 4 18 -1 27 -17 36 -12 6 -19 18 -16
25 3 8 1 17 -3 20 -10 6 -3 43 9 50 5 3 6 -5 2 -17 -3 -14 -2 -19 6 -14 7 4
12 16 12 27 0 10 7 19 15 19 24 0 55 -32 55 -57 0 -12 4 -24 9 -28 5 -3 12
-18 16 -34 4 -21 17 -33 53 -48 44 -20 95 -35 108 -32 3 0 43 -34 89 -78 178
-167 201 -185 272 -206 74 -22 163 -32 163 -18 0 6 13 11 29 11 16 0 32 6 34
13 4 9 8 8 17 -3 9 -11 11 -11 8 -1 -8 30 66 84 187 136 22 10 60 30 85 46 36
22 57 28 105 29 33 0 71 -2 85 -5 19 -5 32 1 58 26 31 31 32 34 16 46 -10 7
-24 13 -32 13 -7 0 -10 5 -7 10 4 6 -10 10 -36 10 -28 0 -59 -10 -96 -31 -49
-28 -60 -31 -106 -25 -29 4 -122 10 -207 15 -123 6 -164 12 -200 29 -26 11
-79 23 -125 27 -77 7 -165 35 -165 53 0 4 -14 22 -31 40 -17 17 -28 36 -24 42
3 5 -1 10 -9 10 -9 0 -16 4 -16 9 0 13 -58 34 -100 36 -20 1 -50 11 -66 22
-16 11 -37 23 -46 26 -10 4 -18 11 -18 17 0 5 -7 10 -16 10 -8 0 -22 7 -30 15
-9 8 -26 15 -38 15 -12 0 -26 3 -30 7 -3 4 -14 8 -24 9 -38 6 -50 10 -66 27
-10 9 -25 18 -34 19 -9 0 -29 2 -44 3 -15 1 -34 7 -41 13 -8 7 -16 9 -20 6 -3
-3 -8 4 -12 15 -3 12 -13 21 -21 21 -8 0 -14 5 -14 11 0 8 -5 7 -15 -1 -13
-11 -18 -10 -30 6 -13 19 -14 19 -42 -2 -25 -19 -28 -28 -29 -78 -1 -31 3 -59
8 -62 4 -3 8 -13 8 -22 0 -26 -28 17 -36 55 -3 18 -10 31 -14 28 -18 -11 -57
178 -70 340 -5 66 -14 158 -21 205 -17 118 -17 431 0 500 30 125 56 190 78
190 7 0 12 5 11 11 -2 6 3 14 11 17 8 3 11 0 7 -7 -4 -6 -2 -11 3 -11 6 0 11
7 11 15 0 8 5 15 11 15 6 0 8 -8 4 -19 -7 -22 29 -53 51 -44 8 3 22 -1 31 -8
9 -8 18 -13 19 -12 2 1 9 1 16 -1 7 -3 30 -7 51 -10 21 -2 52 -12 70 -22 18
-9 41 -18 52 -20 11 -2 38 -7 60 -12 61 -12 125 -8 136 9 8 12 10 12 19 -1 6
-10 6 -16 0 -18 -13 -5 -13 -42 0 -42 5 0 25 11 45 24 36 25 56 25 85 0 30
-25 86 -42 166 -49 l81 -7 26 31 c14 17 29 40 32 51 10 31 24 14 31 -38 5 -39
12 -51 40 -69 l34 -22 0 58 c0 58 -9 97 -36 158 -8 17 -14 34 -14 39 0 16 -88
85 -138 110 -30 14 -50 29 -46 36 4 6 9 7 13 0 3 -6 15 -6 28 -1 19 7 21 12
13 33 -8 22 -7 24 13 20 12 -3 39 -8 60 -11 22 -3 37 -11 37 -19 0 -10 16 -15
53 -16 90 -3 137 2 137 15 0 4 5 5 11 1 6 -3 15 0 20 7 12 19 11 32 -1 24 -15
-9 -12 11 4 24 11 9 15 9 18 0 7 -20 51 50 45 71 -3 11 -1 20 5 20 6 0 7 7 4
16 -3 8 -1 25 5 36 14 27 2 37 -15 12 -19 -25 -31 -12 -14 16 10 18 10 24 1
27 -7 3 -13 12 -13 20 0 9 6 13 15 9 8 -3 15 -1 15 4 0 6 -7 10 -15 10 -8 0
-15 3 -15 8 0 19 64 94 78 90 13 -5 54 30 48 41 -4 5 3 15 14 21 11 6 20 8 20
5 0 -3 6 0 14 7 7 7 11 19 8 27 -4 10 0 13 15 9 29 -8 55 10 48 32 -3 10 -1
21 5 25 5 3 10 -1 10 -9 0 -9 4 -16 9 -16 14 0 20 27 8 39 -6 6 -7 14 -2 18 4
5 10 2 12 -4 5 -15 33 -17 33 -3 0 6 -4 10 -10 10 -5 0 -10 5 -10 11 0 5 5 7
12 3 7 -5 8 -3 3 6 -4 7 -3 15 3 19 7 4 8 31 2 82 -5 42 -9 121 -9 175 0 88 5
131 25 224 3 14 7 36 9 50 2 14 11 47 20 74 14 40 14 50 3 57 -10 7 -10 9 2 9
10 0 21 18 29 48 8 26 19 61 26 77 7 17 21 56 31 88 9 33 23 61 29 63 7 3 18
23 25 45 7 22 18 38 24 36 16 -5 16 -59 0 -84 -8 -12 -14 -30 -14 -39 0 -9 -9
-33 -20 -53 -20 -37 -46 -124 -59 -196 -4 -23 -10 -46 -14 -52 -4 -6 -9 -26
-11 -44 -3 -19 -10 -54 -16 -79 -6 -25 -13 -56 -16 -70 -8 -42 -13 -242 -7
-302 l6 -57 32 25 c17 13 35 24 39 24 12 0 45 43 46 58 0 7 -12 0 -26 -15
l-25 -28 6 25 c5 23 4 22 -25 -10 -37 -42 -38 -37 -5 23 27 47 98 127 114 127
5 0 15 8 22 18 13 16 13 16 -5 2 -17 -13 -19 -13 -14 0 3 8 15 15 26 14 17 0
19 2 10 13 -6 8 -7 13 -2 12 23 -4 36 2 30 16 -3 9 0 15 9 15 19 0 55 40 55
61 0 12 7 16 29 13 24 -3 34 3 57 34 15 20 34 41 42 46 8 4 24 20 35 34 12 15
45 48 72 75 138 136 132 130 139 112 4 -13 2 -16 -9 -11 -8 3 -15 0 -15 -6 0
-6 -7 -20 -17 -30 -19 -21 -8 -23 30 -5 15 6 27 18 27 25 0 6 5 12 11 12 6 0
9 7 6 15 -5 11 0 13 26 8 18 -3 40 -10 51 -15 12 -7 22 -6 29 1 8 8 6 11 -6
11 -9 0 -17 5 -17 10 0 6 6 10 13 10 19 0 40 -17 34 -27 -3 -5 8 -18 25 -28
17 -10 28 -13 24 -7 -4 6 3 16 14 22 11 6 20 19 20 30 0 26 16 33 42 18 13 -7
25 -13 28 -14 54 -13 42 -35 -16 -30 -24 2 -44 -1 -44 -5 0 -5 7 -9 15 -9 8 0
15 -6 15 -12 0 -9 4 -8 10 2 5 8 10 10 10 4 0 -6 15 -15 33 -19 17 -4 26 -9
20 -12 -23 -9 -14 -41 15 -54 15 -6 38 -25 51 -41 l23 -29 -36 20 c-35 20 -36
20 -36 1 0 -13 5 -18 15 -14 11 5 13 2 8 -12 -4 -12 -3 -15 5 -10 7 4 12 1 12
-7 0 -8 7 -17 15 -21 8 -3 15 -10 15 -17 0 -6 -7 -9 -15 -5 -8 3 -15 1 -15 -4
0 -6 10 -10 23 -10 22 -1 64 -46 53 -57 -3 -4 -16 2 -28 13 -22 19 -23 19 -8
-1 8 -11 22 -29 31 -40 9 -11 20 -33 23 -50 4 -16 23 -45 42 -62 19 -18 29
-33 24 -33 -6 0 1 -21 15 -46 14 -26 24 -53 21 -60 -3 -8 -1 -14 5 -14 6 0 9
-6 6 -14 -10 -25 35 -65 81 -72 23 -4 45 -11 48 -16 12 -20 -8 -78 -38 -110
-27 -28 -32 -42 -34 -93 -7 -137 -29 -254 -61 -323 l-25 -54 21 -29 c17 -23
20 -33 11 -50 -8 -13 -17 -18 -30 -14 -15 5 -21 -4 -34 -47 -28 -97 -86 -342
-101 -433 -20 -114 -30 -265 -17 -246 8 11 12 10 20 -5 8 -15 9 -9 5 24 -6 41
-5 42 24 42 29 0 31 -3 36 -47 3 -27 2 -68 -3 -93 -19 -98 -20 -114 -11 -105
16 17 40 132 36 170 -4 31 -2 37 23 46 15 7 22 13 15 16 -15 6 -17 33 -3 33 6
0 10 -6 11 -12 0 -7 5 -3 11 10 10 19 26 27 44 20 3 -2 10 5 15 15 6 9 16 17
23 17 15 0 26 30 26 75 0 17 8 41 17 54 9 14 12 22 7 19 -5 -4 -10 40 -11 105
-2 62 -3 124 -4 140 -2 33 9 47 21 27 7 -11 10 -8 11 15 1 17 1 33 0 37 0 4 4
20 10 35 16 38 38 146 33 154 -2 4 0 45 6 91 6 46 10 117 10 158 -1 60 4 87
24 130 32 71 69 250 55 266 -6 8 -6 14 0 18 10 7 13 275 3 291 -8 12 -9 18
-11 51 0 14 -5 22 -11 19 -5 -3 -10 2 -11 12 -5 78 -7 94 -14 101 -4 4 -5 -5
-1 -20 11 -45 -2 -32 -30 30 -14 31 -36 77 -49 102 -23 43 -59 116 -77 152 -4
10 -5 25 -1 35 6 16 5 16 -9 5 -14 -11 -18 -10 -27 7 -8 14 -8 20 0 23 7 2 -2
19 -20 38 -17 19 -31 38 -31 42 0 5 -5 8 -11 8 -5 0 -7 -4 -4 -10 3 -5 1 -10
-5 -10 -7 0 -9 8 -5 19 4 14 0 21 -15 26 -11 3 -27 20 -35 36 -11 20 -23 29
-40 29 -15 0 -25 6 -25 14 0 8 -13 27 -29 42 -16 16 -43 43 -60 59 -17 17 -27
31 -21 33 11 4 -17 52 -37 65 -7 4 -13 13 -13 18 0 6 5 7 10 4 15 -9 12 25 -6
78 -15 45 -37 61 -47 35 -4 -10 -6 -10 -6 0 -1 9 -240 12 -1160 12 l-1159 0
-11 -32z m859 -307 c0 -5 -7 -12 -16 -15 -14 -5 -15 -4 -4 9 14 17 20 19 20 6z
m240 -175 c0 -2 -7 -7 -16 -10 -8 -3 -12 -2 -9 4 6 10 25 14 25 6z m-10 -30
c0 -2 -9 -6 -20 -9 -11 -3 -20 -1 -20 4 0 5 9 9 20 9 11 0 20 -2 20 -4z m1328
-14 c11 -11 21 -29 24 -40 5 -18 2 -22 -18 -22 -13 0 -24 -4 -24 -8 0 -4 -16
-6 -35 -4 -19 2 -35 8 -35 12 0 5 16 6 35 3 28 -5 34 -3 30 9 -5 12 -16 13
-53 7 -26 -4 -49 -5 -51 -3 -6 5 50 25 68 23 35 -3 52 2 48 14 -2 6 -13 11
-23 9 -16 -2 -17 -1 -4 7 19 14 17 14 38 -7z m-1519 -8 c6 -5 -10 -26 -40 -52
-34 -31 -49 -39 -49 -27 0 9 11 28 25 43 14 15 25 32 25 39 0 13 26 11 39 -3z
m-210 -67 c-5 -16 -17 -35 -27 -43 -18 -12 -34 -34 -104 -144 -73 -113 -157
-294 -193 -418 -29 -98 -23 -211 15 -294 7 -15 10 -34 7 -42 -8 -20 -37 -21
-37 -2 0 8 -7 16 -15 20 -8 3 -15 12 -15 21 0 8 -4 23 -9 33 -14 27 -29 165
-20 184 5 9 9 29 9 45 0 45 88 284 109 297 5 3 12 22 15 41 4 20 16 41 26 48
11 6 20 17 20 22 0 6 11 27 26 46 14 19 33 53 43 75 41 92 173 189 150 111z
m1612 -3 c9 -11 8 -14 -4 -14 -26 0 -30 -20 -5 -29 13 -6 18 -10 11 -10 -6 -1
-18 -3 -25 -6 -13 -5 -38 43 -38 72 0 14 47 4 61 -13z m-1306 -53 c-15 -29
-32 -48 -38 -44 -5 3 -7 1 -4 -4 4 -6 0 -16 -8 -23 -13 -10 -15 -9 -15 9 0 12
-4 19 -10 16 -12 -8 -13 -45 -1 -45 4 0 6 -11 4 -24 -4 -17 0 -25 14 -29 13
-3 10 -5 -8 -6 -15 0 -30 -8 -33 -17 -5 -14 -4 -15 8 -5 8 7 23 11 33 8 14 -4
13 -5 -5 -6 -13 -1 -26 -10 -32 -23 -5 -13 -9 -17 -9 -10 -1 7 -6 10 -11 7 -6
-4 -8 -10 -5 -15 6 -10 -93 -109 -109 -110 -10 0 13 31 32 43 6 4 12 14 12 22
0 8 12 26 27 40 15 14 23 25 17 25 -6 0 -19 -9 -29 -20 -10 -11 -24 -20 -31
-20 -7 0 -14 -5 -16 -12 -3 -7 -7 -5 -11 6 -4 9 -3 15 3 11 5 -3 18 5 29 17
22 23 29 44 11 33 -5 -3 -10 -2 -10 3 0 6 7 12 15 16 8 3 19 16 24 28 15 39
75 113 91 113 8 0 14 8 14 18 -1 9 2 17 7 17 13 0 11 -24 -3 -39 -11 -11 -10
-13 2 -9 8 2 22 17 30 34 23 44 32 56 37 51 2 -3 -8 -28 -22 -56z m-15 29 c0
-5 -2 -10 -4 -10 -3 0 -8 5 -11 10 -3 6 -1 10 4 10 6 0 11 -4 11 -10z m-139
-27 c-6 -11 -11 -13 -11 -5 0 7 -6 10 -12 7 -7 -4 -4 1 6 9 24 19 32 14 17
-11z m52 -20 c-17 -21 -33 -46 -36 -55 -4 -10 -14 -18 -24 -18 -11 0 -14 3 -7
8 6 4 18 21 27 39 19 36 44 63 59 63 5 0 -3 -17 -19 -37z m-73 -1 c0 -13 -79
-86 -86 -79 -12 11 26 57 46 57 11 0 20 7 20 15 0 8 5 15 10 15 6 0 10 -4 10
-8z m331 -10 c-15 -28 -39 -45 -51 -37 -7 4 1 16 22 31 40 28 41 28 29 6z
m-431 -12 c0 -5 -5 -10 -11 -10 -5 0 -7 5 -4 10 3 6 8 10 11 10 2 0 4 -4 4
-10z m338 -1 c-10 -6 -18 -17 -18 -25 0 -8 -5 -12 -10 -9 -6 4 -7 11 -4 17 4
6 1 14 -5 18 -7 4 2 7 21 8 27 1 30 -1 16 -9z m13 -46 c-5 -10 -14 -30 -21
-45 -7 -15 -17 -25 -22 -22 -4 3 -13 2 -19 -2 -8 -4 -7 -9 2 -15 11 -6 11 -11
1 -21 -9 -9 -12 -9 -12 0 0 7 -5 12 -11 12 -6 0 -9 -6 -6 -14 3 -8 -1 -17 -9
-20 -8 -3 -14 -19 -14 -38 -1 -29 -2 -31 -13 -16 -12 15 -15 13 -32 -18 -10
-19 -20 -32 -22 -30 -3 2 3 18 11 35 9 16 16 39 16 51 0 11 7 20 16 20 9 0 12
5 8 12 -4 6 -3 8 4 5 5 -4 33 22 61 58 48 61 83 87 62 48z m1384 7 c3 -5 1
-10 -4 -10 -6 0 -11 5 -11 10 0 6 2 10 4 10 3 0 8 -4 11 -10z m-1625 -27 c2
-2 -2 -8 -9 -12 -7 -5 -10 -14 -7 -20 5 -7 -2 -11 -18 -11 -14 0 -25 -4 -23
-9 1 -5 -10 -20 -25 -34 -21 -20 -28 -22 -28 -10 0 8 19 33 43 55 23 22 34 38
25 35 -18 -6 -24 4 -11 16 6 7 42 0 53 -10z m140 2 c0 -8 -7 -15 -15 -15 -8 0
-15 7 -15 15 0 8 7 15 15 15 8 0 15 -7 15 -15z m-244 -6 c3 -6 -10 -27 -29
-47 -39 -39 -59 -40 -29 -1 11 13 17 30 14 38 -3 8 0 11 7 7 6 -4 11 -2 11 3
0 14 17 14 26 0z m-65 -32 c-10 -9 -11 -8 -5 6 3 10 9 15 12 12 3 -3 0 -11 -7
-18z m685 -15 c-18 -16 -18 -16 -6 6 6 13 14 21 18 18 3 -4 -2 -14 -12 -24z
m-623 -7 c-3 -9 -8 -14 -10 -11 -3 3 -2 9 2 15 9 16 15 13 8 -4z m1081 -56
c-45 -58 -74 -76 -40 -23 15 21 75 83 83 84 2 0 -18 -27 -43 -61z m757 -22
c12 -22 12 -22 -10 -3 -11 11 -21 23 -21 28 0 14 19 -1 31 -25z m-1500 -10
c-10 -9 -11 -8 -5 6 3 10 9 15 12 12 3 -3 0 -11 -7 -18z m675 -5 c-18 -16 -18
-16 -6 6 6 13 14 21 18 18 3 -4 -2 -14 -12 -24z m-1105 -5 c-10 -9 -11 -8 -5
6 3 10 9 15 12 12 3 -3 0 -11 -7 -18z m106 -9 c-29 -42 -57 -73 -57 -65 0 23
58 102 68 92 3 -2 -2 -15 -11 -27z m273 22 c0 -5 -2 -10 -4 -10 -3 0 -8 5 -11
10 -3 6 -1 10 4 10 6 0 11 -4 11 -10z m-460 -34 c0 -3 -4 -8 -10 -11 -5 -3
-10 -1 -10 4 0 6 5 11 10 11 6 0 10 -2 10 -4z m440 -5 c0 -5 -7 -12 -16 -15
-14 -5 -15 -4 -4 9 14 17 20 19 20 6z m-50 -20 c0 -5 -7 -14 -15 -21 -8 -7
-12 -17 -9 -22 4 -6 -2 -8 -15 -3 -15 5 -21 2 -21 -9 0 -9 -4 -16 -10 -16 -18
0 -10 17 22 49 32 31 48 39 48 22z m395 -11 c3 -5 0 -7 -8 -4 -10 3 -20 -8
-30 -33 -17 -38 -67 -106 -67 -89 0 5 10 25 22 45 13 20 21 44 20 53 -2 11 3
18 12 18 9 0 16 5 16 10 0 13 27 13 35 0z m275 0 c0 -5 -5 -10 -11 -10 -5 0
-7 5 -4 10 3 6 8 10 11 10 2 0 4 -4 4 -10z m-660 -14 c0 -3 -4 -8 -10 -11 -5
-3 -10 -1 -10 4 0 6 5 11 10 11 6 0 10 -2 10 -4z m676 -15 c-11 -12 -15 -25
-11 -33 6 -10 5 -10 -5 -1 -11 10 -10 16 5 33 10 11 20 20 23 20 3 0 -3 -9
-12 -19z m-1126 -1 c0 -5 -5 -10 -11 -10 -5 0 -7 5 -4 10 3 6 8 10 11 10 2 0
4 -4 4 -10z m240 0 c0 -5 -5 -10 -11 -10 -5 0 -7 5 -4 10 3 6 8 10 11 10 2 0
4 -4 4 -10z m322 -42 c-7 -7 -12 -8 -12 -2 0 6 3 14 7 17 3 4 9 5 12 2 2 -3
-1 -11 -7 -17z m168 18 c0 -3 -4 -8 -10 -11 -5 -3 -10 -1 -10 4 0 6 5 11 10
11 6 0 10 -2 10 -4z m300 -21 c0 -8 -4 -15 -10 -15 -5 0 -7 7 -4 15 4 8 8 15
10 15 2 0 4 -7 4 -15z m-316 -30 c-7 -18 -34 -28 -34 -12 0 17 21 38 31 31 5
-2 6 -11 3 -19z m337 2 c-10 -9 -11 -8 -5 6 3 10 9 15 12 12 3 -3 0 -11 -7
-18z m-59 -29 c-7 -7 -12 -8 -12 -2 0 6 3 14 7 17 3 4 9 5 12 2 2 -3 -1 -11
-7 -17z m48 8 c0 -2 -8 -10 -17 -17 -16 -13 -17 -12 -4 4 13 16 21 21 21 13z
m-785 -36 c-3 -5 -11 -10 -16 -10 -6 0 -7 5 -4 10 3 6 11 10 16 10 6 0 7 -4 4
-10z m488 -15 c-3 -9 -8 -14 -10 -11 -3 3 -2 9 2 15 9 16 15 13 8 -4z m200
-30 c-3 -9 -8 -14 -10 -11 -3 3 -2 9 2 15 9 16 15 13 8 -4z m1287 -106 c0 -6
-4 -7 -10 -4 -5 3 -10 11 -10 16 0 6 5 7 10 4 6 -3 10 -11 10 -16z m-1605
-329 c-3 -5 -12 -10 -18 -10 -7 0 -6 4 3 10 19 12 23 12 15 0z m-1703 -442
c-5 -5 -8 -26 -5 -47 7 -48 -13 -117 -34 -126 -10 -3 -19 -1 -22 6 -2 8 -6 8
-11 -2 -9 -14 -40 -22 -40 -10 0 22 23 70 33 68 6 -1 13 8 15 21 2 12 9 22 15
22 9 0 9 2 0 8 -9 6 -9 13 2 32 8 14 19 36 25 50 11 23 12 24 22 7 7 -13 7
-22 0 -29z m19 -31 c-10 -9 -11 -8 -5 6 3 10 9 15 12 12 3 -3 0 -11 -7 -18z
m1179 -103 c0 -8 -4 -12 -10 -9 -5 3 -10 10 -10 16 0 5 5 9 10 9 6 0 10 -7 10
-16z m80 -48 c0 -3 -4 -8 -10 -11 -5 -3 -10 -1 -10 4 0 6 5 11 10 11 6 0 10
-2 10 -4z m2097 -188 c-3 -7 -5 -2 -5 12 0 14 2 19 5 13 2 -7 2 -19 0 -25z
m-202 -244 c0 -17 -4 -24 -15 -22 -9 2 -14 12 -12 27 3 16 0 21 -9 15 -9 -5
-10 -2 -6 10 4 10 7 23 8 29 0 22 33 -34 34 -59z m64 13 c12 -15 12 -17 -3
-11 -9 3 -16 13 -16 22 0 8 1 13 3 11 1 -2 9 -12 16 -22z m-3070 -59 c0 -13
-4 -32 -8 -43 -6 -15 -8 -9 -9 23 0 23 3 42 9 42 5 0 9 -10 8 -22z m62 -473
c-6 -10 -18 35 -19 70 0 11 5 2 12 -20 7 -22 10 -44 7 -50z m-44 -167 c-3 -7
-5 -2 -5 12 0 14 2 19 5 13 2 -7 2 -19 0 -25z m133 -318 c0 -5 -2 -10 -4 -10
-3 0 -8 5 -11 10 -3 6 -1 10 4 10 6 0 11 -4 11 -10z m-96 -188 c-4 -15 -6 -33
-5 -41 1 -7 -2 -10 -9 -6 -11 7 -6 67 8 89 10 17 14 -13 6 -42z m31 -11 c-3
-6 -11 -11 -16 -11 -5 0 -4 6 3 14 14 16 24 13 13 -3z m42 -143 c-3 -8 -6 -5
-6 6 -1 11 2 17 5 13 3 -3 4 -12 1 -19z m-167 -57 c0 -5 -9 -7 -20 -4 -11 3
-20 7 -20 9 0 2 9 4 20 4 11 0 20 -4 20 -9z m-419 -164 c-10 -9 -11 -8 -5 6 3
10 9 15 12 12 3 -3 0 -11 -7 -18z m129 -32 c-7 -8 -16 -15 -21 -15 -5 0 -6 7
-3 15 4 8 13 15 21 15 13 0 13 -3 3 -15z m-60 -4 c0 -10 -26 -9 -36 2 -4 4 2
7 14 7 12 0 22 -4 22 -9z m-40 -25 c0 -3 -4 -8 -10 -11 -5 -3 -10 -1 -10 4 0
6 5 11 10 11 6 0 10 -2 10 -4z m-314 -23 c22 -20 44 -27 44 -15 0 4 9 8 20 9
21 2 28 -21 10 -32 -14 -9 -81 6 -74 16 3 5 3 9 0 9 -2 0 -11 3 -20 6 -11 4
-16 1 -16 -10 0 -9 5 -16 10 -16 6 0 9 -3 9 -7 -4 -22 4 -30 36 -43 35 -14 45
-33 24 -46 -6 -3 -15 -1 -19 6 -4 7 -13 9 -21 5 -9 -6 -11 -3 -6 8 5 12 1 17
-12 17 -10 0 -22 7 -25 16 -12 32 -4 94 13 94 4 0 16 -8 27 -17z m184 7 c0 -5
-4 -10 -10 -10 -5 0 -10 5 -10 10 0 6 5 10 10 10 6 0 10 -4 10 -10z m-335 -81
c-6 -30 -13 -35 -21 -14 -4 10 -1 21 7 26 19 12 18 12 14 -12z m26 -12 c-10
-9 -11 -8 -5 6 3 10 9 15 12 12 3 -3 0 -11 -7 -18z m259 8 c7 -8 21 -15 32
-15 10 0 17 -4 14 -9 -10 -16 -56 -10 -56 8 -1 13 -3 13 -15 -3 -15 -20 -15
-20 -15 0 0 35 19 44 40 19z m-435 -38 c-8 -19 -56 -18 -63 2 -4 11 3 13 28 8
28 -6 31 -5 25 11 -4 12 -3 14 5 6 6 -6 8 -18 5 -27z m575 8 c-7 -9 -15 -13
-17 -11 -7 7 7 26 19 26 6 0 6 -6 -2 -15z m-660 -15 c0 -5 -2 -10 -4 -10 -3 0
-8 5 -11 10 -3 6 -1 10 4 10 6 0 11 -4 11 -10z m118 -25 c-3 -3 -9 2 -12 12
-6 14 -5 15 5 6 7 -7 10 -15 7 -18z m144 7 c-7 -2 -12 -11 -12 -19 0 -9 -3
-14 -6 -10 -10 10 7 48 19 40 8 -5 8 -8 -1 -11z m-195 -24 c-3 -8 -6 -5 -6 6
-1 11 2 17 5 13 3 -3 4 -12 1 -19z m-37 -3 c6 3 10 -3 10 -14 0 -23 -15 -28
-24 -8 -3 6 -3 1 0 -12 4 -16 3 -21 -5 -17 -6 4 -11 13 -11 20 0 13 -27 15
-47 3 -6 -4 -13 0 -17 8 -4 11 2 15 24 15 17 0 30 5 30 11 0 8 4 8 15 -1 8 -6
19 -9 25 -5z m806 -30 c-9 -13 -16 -31 -16 -40 0 -8 -7 -15 -15 -15 -10 0 -15
11 -15 35 0 25 4 35 16 35 8 0 12 -4 9 -10 -3 -5 -4 -10 0 -10 3 0 10 12 16
28 7 16 13 22 16 14 3 -7 -2 -24 -11 -37z m-151 26 c3 -5 1 -12 -5 -16 -5 -3
-10 1 -10 9 0 18 6 21 15 7z m85 -12 c0 -5 -4 -9 -10 -9 -5 0 -10 7 -10 16 0
8 5 12 10 9 6 -3 10 -10 10 -16z m-360 1 c0 -5 -5 -10 -11 -10 -5 0 -7 5 -4
10 3 6 8 10 11 10 2 0 4 -4 4 -10z m-127 -20 c-3 -12 -8 -19 -11 -16 -5 6 5
36 12 36 2 0 2 -9 -1 -20z m317 -11 c0 -6 -4 -7 -10 -4 -5 3 -10 11 -10 16 0
6 5 7 10 4 6 -3 10 -11 10 -16z m-394 -28 c-19 -19 -30 -9 -21 19 5 17 9 19
21 9 13 -11 13 -14 0 -28z m158 -16 c-10 -24 -20 -17 -18 13 2 44 5 48 14 24
5 -12 7 -29 4 -37z m-511 16 c4 -1 18 -1 32 -1 14 0 25 -4 25 -10 0 -5 -18 -8
-41 -6 -25 2 -45 -2 -54 -11 -8 -8 -19 -12 -24 -9 -12 8 -21 46 -10 46 5 0 9
-4 9 -10 0 -5 5 -10 10 -10 6 0 10 7 10 15 0 12 4 13 18 6 9 -5 20 -9 25 -10z
m667 9 c0 -5 -4 -10 -10 -10 -5 0 -10 5 -10 10 0 6 5 10 10 10 6 0 10 -4 10
-10z m-72 -44 c15 5 15 4 0 -9 -10 -8 -18 -19 -18 -25 0 -6 -7 -9 -15 -6 -10
4 -13 14 -9 33 10 48 18 58 22 29 2 -20 8 -26 20 -22z m-351 21 c0 -1 -1 -14
-4 -29 -5 -26 -23 -40 -23 -18 0 6 -7 10 -15 10 -8 0 -15 -5 -15 -10 0 -6 7
-13 15 -16 16 -7 22 -74 6 -74 -15 0 -23 18 -11 25 14 8 13 21 -3 37 -38 38
-22 94 23 83 14 -4 26 -7 27 -8z m679 -44 c-10 -11 -25 18 -18 35 4 13 8 11
15 -6 6 -12 7 -25 3 -29z m-190 17 c16 0 19 -16 5 -25 -10 -5 -32 25 -30 42 0
4 3 2 6 -4 2 -7 11 -13 19 -13z m-616 -10 c6 -11 7 -20 2 -20 -6 0 -12 9 -15
20 -3 11 -3 20 -1 20 2 0 8 -9 14 -20z m158 -17 c-14 -18 -19 -12 -11 16 4 16
8 19 14 10 4 -7 3 -19 -3 -26z m674 15 c-7 -7 -12 -8 -12 -2 0 14 12 26 19 19
2 -3 -1 -11 -7 -17z m-862 2 c0 -5 -5 -10 -11 -10 -5 0 -7 5 -4 10 3 6 8 10
11 10 2 0 4 -4 4 -10z m697 -12 c-3 -8 -6 -5 -6 6 -1 11 2 17 5 13 3 -3 4 -12
1 -19z m-867 -7 c6 -11 6 -22 1 -25 -5 -3 -11 5 -13 19 -6 30 -2 32 12 6z
m781 -4 c-10 -9 -11 -8 -5 6 3 10 9 15 12 12 3 -3 0 -11 -7 -18z m-307 -22
c-7 -18 -8 -18 -14 1 -9 23 -1 39 11 27 6 -6 6 -18 3 -28z m65 -9 c-9 -8 -10
-7 -5 7 3 10 7 24 7 30 1 7 3 4 6 -7 3 -10 -1 -23 -8 -30z m-445 19 c-11 -27
-40 -37 -55 -17 -7 9 -10 14 -5 10 4 -3 19 0 34 8 33 17 33 17 26 -1z m996 11
c0 -3 -4 -8 -10 -11 -5 -3 -10 -1 -10 4 0 6 5 11 10 11 6 0 10 -2 10 -4z m97
-16 c-3 -10 1 -24 9 -30 10 -9 11 -16 1 -31 -11 -19 -12 -18 -18 8 -11 46 -10
73 2 73 6 0 9 -9 6 -20z m-307 -1 c0 -7 7 -17 16 -24 14 -10 15 -17 6 -41 -9
-26 -11 -27 -11 -6 -1 13 -5 20 -11 17 -6 -3 -7 1 -4 9 3 9 1 16 -5 16 -6 0
-11 9 -11 20 0 11 5 20 10 20 6 0 10 -5 10 -11z m370 1 c0 -5 -5 -10 -11 -10
-5 0 -7 5 -4 10 3 6 8 10 11 10 2 0 4 -4 4 -10z m-1102 -63 c10 -23 10 -28 0
-25 -7 3 -13 9 -13 15 0 6 -11 20 -24 30 -14 11 -21 25 -17 31 9 15 37 -12 54
-51z m643 31 c-3 -21 -6 -26 -9 -15 -3 17 3 47 11 47 2 0 1 -15 -2 -32z m-597
6 c4 -10 1 -14 -6 -12 -15 5 -23 28 -10 28 5 0 13 -7 16 -16z m183 -6 c-3 -8
-6 -5 -6 6 -1 11 2 17 5 13 3 -3 4 -12 1 -19z m37 -2 c-3 -9 -10 -16 -15 -16
-5 0 -4 9 3 20 14 22 21 20 12 -4z m740 -12 c13 -19 15 -29 7 -37 -8 -8 -11
-7 -11 5 0 8 -7 21 -15 28 -11 9 -15 9 -15 1 0 -7 -5 -9 -10 -6 -8 5 -7 11 1
21 16 19 21 18 43 -12z m-310 1 c3 -8 1 -15 -3 -15 -5 0 -11 7 -15 15 -3 8 -1
15 3 15 5 0 11 -7 15 -15z m-514 1 c0 -3 -4 -8 -10 -11 -5 -3 -10 -1 -10 4 0
6 5 11 10 11 6 0 10 -2 10 -4z m140 -27 c0 -12 -27 -11 -35 1 -11 17 5 32 21
19 8 -6 14 -15 14 -20z m-253 0 c-1 -11 -9 -25 -19 -30 -22 -12 -23 -5 -2 26
20 30 23 31 21 4z m1182 1 c-8 -4 -25 -11 -39 -15 -22 -7 -23 -6 -12 8 8 9 20
13 28 10 8 -3 14 0 14 7 0 6 5 8 11 4 8 -5 8 -9 -2 -14z m-1055 -24 c-3 -15
-8 -25 -11 -23 -2 3 -1 17 3 31 3 15 8 25 11 23 2 -3 1 -17 -3 -31z m-414 15
c0 -6 -4 -13 -10 -16 -5 -3 -10 1 -10 9 0 9 5 16 10 16 6 0 10 -4 10 -9z m743
2 c4 -3 2 -12 -5 -20 -8 -10 -8 -17 0 -25 14 -14 16 -48 2 -48 -5 0 -7 7 -3
15 3 9 -2 21 -11 28 -10 8 -14 20 -10 35 6 22 15 27 27 15z m-306 -25 c-3 -8
-6 -5 -6 6 -1 11 2 17 5 13 3 -3 4 -12 1 -19z m563 13 c0 -6 -4 -12 -9 -15 -4
-3 -11 -19 -14 -36 -7 -34 -23 -39 -32 -10 -3 11 -15 20 -26 20 -10 0 -19 5
-19 10 0 13 43 13 57 -1 7 -7 12 -3 17 15 6 24 26 37 26 17z m-890 -10 c0 -5
-7 -12 -16 -15 -14 -5 -15 -4 -4 9 14 17 20 19 20 6z m580 -7 c0 -15 -22 -54
-30 -54 -7 0 -8 6 -1 19 8 14 7 20 -4 25 -25 9 -17 24 10 18 14 -2 25 -6 25
-8z m654 -11 c7 3 19 1 27 -4 12 -7 12 -9 -1 -10 -8 -1 -25 -3 -37 -4 -16 -2
-23 3 -23 15 0 23 14 35 18 15 2 -9 9 -14 16 -12z m166 18 c0 -12 -20 -25 -27
-18 -7 7 6 27 18 27 5 0 9 -4 9 -9z m-350 -17 c0 -8 -4 -12 -10 -9 -5 3 -10
10 -10 16 0 5 5 9 10 9 6 0 10 -7 10 -16z m-991 -28 c18 -19 20 -24 7 -29 -10
-4 -13 -1 -9 9 6 16 -22 20 -32 4 -4 -7 -13 -6 -27 1 -21 11 -21 12 8 24 16 8
29 14 30 14 0 1 11 -10 23 -23z m263 2 c-6 -6 -15 -8 -19 -4 -4 4 -1 11 7 16
8 5 17 7 19 4 3 -2 -1 -10 -7 -16z m48 -3 c0 -15 -6 -25 -14 -25 -8 0 -13 10
-13 25 0 15 5 25 13 25 8 0 14 -10 14 -25z m551 12 c-1 -12 -15 -9 -19 4 -3 6
1 10 8 8 6 -3 11 -8 11 -12z m-951 -9 c0 -4 -11 -8 -24 -8 -14 0 -27 4 -30 8
-3 5 8 9 24 9 17 0 30 -4 30 -9z m175 -32 c0 -17 -6 -31 -15 -34 -13 -5 -13
-3 -1 11 12 15 11 17 -3 17 -10 0 -16 8 -16 21 0 14 5 19 18 17 11 -2 17 -13
17 -32z m1152 12 c-3 -8 -6 -5 -6 6 -1 11 2 17 5 13 3 -3 4 -12 1 -19z m-1083
6 c9 -3 16 -14 16 -23 0 -13 -2 -13 -9 -2 -6 10 -10 10 -16 1 -6 -9 -10 -9
-16 1 -17 27 -8 36 25 23z m497 -30 c-5 -16 -10 -21 -10 -12 -1 18 10 51 15
45 2 -1 -1 -16 -5 -33z m352 19 c-7 -3 -13 -11 -13 -19 0 -8 -4 -14 -10 -14
-17 0 -11 28 7 39 10 5 20 7 23 4 3 -3 -1 -8 -7 -10z m407 2 c-15 -17 -40 -20
-40 -4 0 6 7 9 15 5 8 -3 15 -1 15 4 0 6 5 10 11 10 8 0 8 -5 -1 -15z m-1610
1 c0 -3 -4 -8 -10 -11 -5 -3 -10 -1 -10 4 0 6 5 11 10 11 6 0 10 -2 10 -4z
m1073 -11 c-3 -9 -8 -14 -10 -11 -3 3 -2 9 2 15 9 16 15 13 8 -4z m42 6 c3 -5
1 -12 -4 -15 -5 -3 -11 1 -15 9 -6 16 9 21 19 6z m220 -1 c8 -13 -25 -62 -38
-57 -6 2 -13 9 -15 17 -3 9 1 11 12 7 15 -6 21 8 17 36 -2 10 17 9 24 -3z
m-790 -27 c7 3 18 0 24 -6 9 -9 14 -8 21 3 9 13 10 13 10 0 -1 -8 -7 -23 -14
-32 -12 -16 -14 -16 -36 7 -18 19 -26 22 -37 14 -16 -14 -17 -4 -1 24 11 20
12 20 16 4 2 -10 10 -16 17 -14z m141 -10 c-11 -11 -19 6 -11 24 8 17 8 17 12
0 3 -10 2 -21 -1 -24z m140 12 c1 -15 -3 -25 -12 -25 -15 0 -17 10 -8 34 9 24
19 19 20 -9z m421 19 c-3 -3 -12 -4 -19 -1 -8 3 -5 6 6 6 11 1 17 -2 13 -5z
m163 -4 c0 -5 -5 -10 -11 -10 -5 0 -7 5 -4 10 3 6 8 10 11 10 2 0 4 -4 4 -10z
m-920 -10 c0 -5 -4 -10 -10 -10 -5 0 -10 5 -10 10 0 6 5 10 10 10 6 0 10 -4
10 -10z m237 -22 c-3 -8 -6 -5 -6 6 -1 11 2 17 5 13 3 -3 4 -12 1 -19z m433 1
c0 -6 -4 -7 -10 -4 -5 3 -10 11 -10 16 0 6 5 7 10 4 6 -3 10 -11 10 -16z m276
-5 c-22 -15 -36 -18 -36 -6 0 9 43 30 50 24 3 -2 -4 -10 -14 -18z m-1506 6 c0
-5 -4 -10 -10 -10 -5 0 -10 5 -10 10 0 6 5 10 10 10 6 0 10 -4 10 -10z m1111
2 c13 -6 9 -11 -17 -23 -19 -9 -34 -13 -34 -8 0 5 5 9 10 9 6 0 10 7 10 15 0
16 6 17 31 7z m207 -22 c-1 -17 -5 -33 -10 -36 -5 -3 -6 -14 -3 -25 4 -11 2
-19 -4 -19 -14 0 -14 47 -1 55 6 4 8 10 5 15 -5 8 3 40 10 40 2 0 3 -14 3 -30z
m322 26 c0 -3 -4 -8 -10 -11 -5 -3 -10 -1 -10 4 0 6 5 11 10 11 6 0 10 -2 10
-4z m-1602 -31 c7 -15 8 -25 2 -25 -6 0 -10 7 -10 15 0 8 -4 15 -10 15 -5 0
-10 5 -10 10 0 19 17 10 28 -15z m342 16 c0 -6 -4 -13 -10 -16 -5 -3 -10 1
-10 9 0 9 5 16 10 16 6 0 10 -4 10 -9z m93 -10 c3 -12 -1 -22 -10 -25 -21 -8
-20 -9 -25 19 -4 19 -1 25 12 25 10 0 20 -9 23 -19z m-273 -12 c0 -14 -17 -10
-23 5 -4 10 -1 13 9 9 7 -3 14 -9 14 -14z m201 -30 l-10 -24 0 26 c-1 14 2 29
6 33 12 12 14 -9 4 -35z m189 27 c0 -2 -7 -7 -16 -10 -8 -3 -12 -2 -9 4 6 10
25 14 25 6z m372 -28 c-7 -7 -12 -8 -12 -2 0 14 12 26 19 19 2 -3 -1 -11 -7
-17z m134 -5 c-10 -10 -19 5 -10 18 6 11 8 11 12 0 2 -7 1 -15 -2 -18z m264
17 c0 -5 -4 -10 -10 -10 -5 0 -10 5 -10 10 0 6 5 10 10 10 6 0 10 -4 10 -10z
m-1393 -32 c-3 -8 -6 -5 -6 6 -1 11 2 17 5 13 3 -3 4 -12 1 -19z m748 -2 c-10
-7 -15 -18 -12 -23 4 -6 0 -13 -8 -16 -12 -5 -12 -1 -4 21 10 27 29 45 38 36
2 -2 -4 -10 -14 -18z m775 5 c0 -12 -20 -36 -20 -24 0 6 -3 19 -6 27 -5 12 -2
15 10 10 9 -3 16 -9 16 -13z m-1144 -18 c-10 -10 -19 5 -10 18 6 11 8 11 12 0
2 -7 1 -15 -2 -18z m428 11 c9 -24 7 -28 -9 -14 -17 14 -20 30 -6 30 5 0 12
-7 15 -16z m756 7 c0 -6 -5 -13 -11 -17 -6 -3 -9 -17 -6 -30 4 -24 -6 -33 -17
-15 -10 16 6 71 20 71 8 0 14 -4 14 -9z m-1465 -11 c3 -5 1 -10 -4 -10 -6 0
-11 5 -11 10 0 6 2 10 4 10 3 0 8 -4 11 -10z m801 -22 c-14 -42 -25 -58 -37
-58 -5 0 -3 10 6 23 8 13 12 27 9 30 -7 7 14 37 26 37 4 0 3 -15 -4 -32z m481
10 c-3 -8 -6 -5 -6 6 -1 11 2 17 5 13 3 -3 4 -12 1 -19z m74 -35 c-9 -15 -10
-13 -11 13 0 17 3 34 8 38 11 12 14 -32 3 -51z m-1134 32 c31 -15 49 -50 32
-60 -4 -3 -14 3 -21 15 -7 11 -19 20 -27 20 -8 0 -11 3 -8 7 4 3 2 12 -4 20
-15 17 -9 16 28 -2z m633 1 c0 -8 -4 -18 -10 -21 -5 -3 -10 3 -10 14 0 12 5
21 10 21 6 0 10 -6 10 -14z m310 4 c0 -3 -5 -12 -10 -20 -9 -13 -11 -13 -20 0
-14 22 -12 26 10 26 11 0 20 -3 20 -6z m353 -27 c-7 -3 -13 -13 -13 -23 0 -21
-25 -44 -40 -35 -15 9 -12 25 4 25 8 0 20 13 27 30 10 21 17 26 24 18 7 -7 6
-12 -2 -15z m-1348 7 c3 -5 1 -10 -4 -10 -6 0 -11 5 -11 10 0 6 2 10 4 10 3 0
8 -4 11 -10z m195 0 c0 -5 -5 -10 -11 -10 -5 0 -7 5 -4 10 3 6 8 10 11 10 2 0
4 -4 4 -10z m80 6 c0 -3 -4 -8 -10 -11 -5 -3 -10 -1 -10 4 0 6 5 11 10 11 6 0
10 -2 10 -4z m160 0 c0 -3 -4 -8 -10 -11 -5 -3 -10 -1 -10 4 0 6 5 11 10 11 6
0 10 -2 10 -4z m477 -18 c-3 -8 -6 -5 -6 6 -1 11 2 17 5 13 3 -3 4 -12 1 -19z
m-777 -7 c0 -10 -8 -25 -17 -32 -15 -12 -16 -12 -10 4 4 10 7 25 7 33 0 8 5
14 10 14 6 0 10 -8 10 -19z m162 -3 c-7 -7 -12 -8 -12 -2 0 6 3 14 7 17 3 4 9
5 12 2 2 -3 -1 -11 -7 -17z m288 8 c0 -7 -6 -19 -14 -25 -11 -9 -12 -6 -8 14
5 26 22 35 22 11z m-863 -18 c-3 -8 -6 -5 -6 6 -1 11 2 17 5 13 3 -3 4 -12 1
-19z m133 0 c0 -10 -2 -18 -5 -18 -2 0 -9 8 -14 18 -8 14 -6 19 5 19 7 0 14
-9 14 -19z m673 7 c-3 -9 -8 -14 -10 -11 -3 3 -2 9 2 15 9 16 15 13 8 -4z
m195 3 c15 -15 16 -38 2 -38 -5 0 -10 7 -10 15 0 8 -4 15 -10 15 -5 0 -10 -4
-10 -9 0 -5 -7 -12 -16 -15 -8 -3 -13 -2 -11 2 2 4 7 15 10 25 7 20 28 22 45
5z m659 -20 c-3 -7 -5 -2 -5 12 0 14 2 19 5 13 2 -7 2 -19 0 -25z m-1047 12
c0 -5 -5 -10 -11 -10 -5 0 -7 5 -4 10 3 6 8 10 11 10 2 0 4 -4 4 -10z m580
-37 c0 -7 -4 -13 -9 -13 -5 0 -11 -13 -14 -28 -4 -18 -16 -32 -34 -40 -28 -12
-28 -12 -6 5 23 20 45 85 37 111 -5 14 -2 13 10 -2 9 -11 16 -26 16 -33z m135
37 c-3 -5 -12 -10 -18 -10 -7 0 -6 4 3 10 19 12 23 12 15 0z m-875 -26 c0 -14
-4 -23 -10 -19 -5 3 -10 15 -10 26 0 10 5 19 10 19 6 0 10 -12 10 -26z m-375
6 c-3 -5 9 -13 27 -18 l33 -9 -27 -13 c-16 -7 -28 -19 -28 -26 0 -10 -7 -11
-32 -2 l-32 12 27 9 c28 9 34 21 16 33 -8 4 -7 9 2 15 18 11 22 11 14 -1z
m1465 6 c0 -2 -7 -9 -15 -16 -13 -11 -14 -10 -9 4 5 14 24 23 24 12z m-1510
-10 c0 -2 -7 -6 -15 -10 -8 -3 -15 -1 -15 4 0 6 7 10 15 10 8 0 15 -2 15 -4z
m270 -17 c0 -5 -6 -9 -14 -9 -20 0 -13 -62 7 -69 12 -5 14 -10 6 -21 -6 -8
-12 -11 -15 -5 -15 35 -24 40 -38 23 -16 -22 -26 -23 -26 -4 0 8 -3 16 -7 19
-5 2 -2 2 6 0 17 -4 43 16 35 28 -7 12 26 60 37 53 5 -3 9 -9 9 -15z m385 -4
c6 -6 17 -10 25 -7 8 3 11 1 7 -4 -14 -14 -57 -11 -57 4 0 23 -25 7 -28 -19
-4 -26 -35 -74 -31 -49 3 27 -1 50 -8 47 -9 -2 -13 6 -13 25 0 6 3 9 6 5 4 -3
13 0 21 8 16 17 61 11 78 -10z m756 -8 c-10 -9 -11 -8 -5 6 3 10 9 15 12 12 3
-3 0 -11 -7 -18z m-1277 -8 c-3 -5 -10 -7 -15 -3 -5 3 -7 10 -3 15 3 5 10 7
15 3 5 -3 7 -10 3 -15z m202 -16 c-10 -10 -19 5 -10 18 6 11 8 11 12 0 2 -7 1
-15 -2 -18z m394 23 c0 -2 -7 -7 -16 -10 -8 -3 -12 -2 -9 4 6 10 25 14 25 6z
m146 -21 c-5 -18 -2 -25 9 -25 8 0 15 -5 15 -11 0 -6 -7 -9 -15 -6 -8 4 -17 2
-20 -3 -4 -6 -12 -10 -18 -10 -9 0 -9 2 -1 8 6 4 15 22 19 40 3 17 9 32 12 32
3 0 2 -11 -1 -25z m-720 -22 c-5 -12 -10 -13 -17 -6 -8 8 -7 16 2 26 16 17 24
5 15 -20z m590 5 c-3 -33 -26 -53 -26 -23 0 17 17 55 25 55 3 0 3 -14 1 -32z
m234 -23 c-12 -23 -46 -43 -56 -33 -2 3 7 19 21 38 13 18 22 38 18 44 -3 6 2
3 12 -6 16 -15 17 -20 5 -43z m350 46 c0 -5 3 -16 6 -24 3 -9 -3 -16 -15 -20
-23 -6 -24 -3 -15 31 6 21 24 31 24 13z m201 -44 c-8 -8 -11 -4 -11 14 0 33
14 47 18 19 2 -12 -1 -27 -7 -33z m-91 14 c0 -10 -3 -21 -6 -24 -13 -12 -21 3
-17 28 6 27 23 24 23 -4z m-648 -22 c-16 -19 -18 -19 -30 -2 -11 15 -11 19 2
21 9 2 16 8 16 14 0 7 5 6 14 -1 13 -11 12 -15 -2 -32z m597 -3 c-9 -8 -10 -7
-5 7 3 10 7 24 7 30 1 7 3 4 6 -7 3 -10 -1 -23 -8 -30z m216 34 c3 -5 -1 -10
-9 -10 -9 0 -16 5 -16 10 0 6 4 10 9 10 6 0 13 -4 16 -10z m-1485 -15 c0 -8
-2 -15 -4 -15 -2 0 -6 7 -10 15 -3 8 -1 15 4 15 6 0 10 -7 10 -15z m933 0 c-3
-9 -8 -14 -10 -11 -3 3 -2 9 2 15 9 16 15 13 8 -4z m107 5 c0 -5 -2 -10 -4
-10 -3 0 -8 5 -11 10 -3 6 -1 10 4 10 6 0 11 -4 11 -10z m50 5 c0 -2 -10 -10
-22 -16 -21 -11 -22 -11 -9 4 13 16 31 23 31 12z m30 -16 c0 -6 -4 -7 -10 -4
-5 3 -10 11 -10 16 0 6 5 7 10 4 6 -3 10 -11 10 -16z m470 1 c0 -5 -5 -10 -11
-10 -5 0 -7 5 -4 10 3 6 8 10 11 10 2 0 4 -4 4 -10z m-1390 -22 c0 -15 -9 -27
-25 -35 -28 -12 -33 -2 -10 17 8 7 15 19 15 26 0 8 5 14 10 14 6 0 10 -10 10
-22z m1243 2 c3 -11 1 -20 -4 -20 -5 0 -9 9 -9 20 0 11 2 20 4 20 2 0 6 -9 9
-20z m-1042 -23 c-8 -8 -11 -7 -11 4 0 20 13 34 18 19 3 -7 -1 -17 -7 -23z
m810 -8 c-9 -22 -10 -22 -10 -3 -1 11 2 24 6 27 12 12 14 0 4 -24z m-1217 10
c-5 -9 4 -10 31 -5 45 9 40 -9 -6 -19 -36 -8 -64 10 -39 25 20 13 23 12 14 -1z
m276 -4 c-7 -9 -15 -13 -17 -11 -7 7 7 26 19 26 6 0 6 -6 -2 -15z m180 11 c0
-3 -4 -8 -10 -11 -5 -3 -10 -1 -10 4 0 6 5 11 10 11 6 0 10 -2 10 -4z m285 -4
c-5 -4 -10 -18 -9 -32 0 -14 -5 -32 -11 -40 -7 -8 -15 -22 -18 -30 -5 -11 -6
-9 -6 5 2 35 -1 45 -11 45 -5 0 -10 -11 -10 -25 0 -14 -4 -25 -10 -25 -5 0 -8
16 -5 35 6 48 15 62 27 41 12 -22 28 -20 28 2 0 21 8 32 24 32 7 0 7 -3 1 -8z
m38 -8 c-3 -8 4 -25 16 -38 16 -17 19 -26 11 -31 -7 -4 -16 -2 -20 5 -4 7 -15
10 -24 7 -12 -5 -13 -2 -6 16 4 12 11 30 14 40 3 9 8 17 10 17 3 0 3 -7 -1
-16z m484 -6 c-3 -8 -6 -5 -6 6 -1 11 2 17 5 13 3 -3 4 -12 1 -19z m102 -23
c1 -5 -6 -2 -15 7 -10 9 -13 21 -8 29 5 9 9 8 15 -7 4 -10 8 -23 8 -29z m33
30 c0 -5 -5 -11 -11 -13 -6 -2 -11 4 -11 13 0 9 5 15 11 13 6 -2 11 -8 11 -13z
m-1467 -5 c-3 -6 1 -13 9 -16 9 -3 16 -10 16 -15 0 -10 -50 -12 -74 -3 -24 9
-19 24 8 24 14 0 28 5 31 10 3 6 8 10 11 10 3 0 2 -5 -1 -10z m389 -22 c-4
-13 -8 -25 -9 -28 -2 -13 -37 -71 -40 -68 -8 7 19 83 32 91 7 4 13 15 13 24 0
9 3 14 6 10 3 -3 2 -16 -2 -29z m598 10 c-7 -7 -12 -8 -12 -2 0 14 12 26 19
19 2 -3 -1 -11 -7 -17z m142 -3 c-3 -14 -2 -31 3 -38 9 -11 10 -54 2 -61 -2
-2 -11 10 -20 28 -14 27 -14 36 -2 64 16 38 26 42 17 7z m-829 6 c3 -5 1 -12
-5 -16 -5 -3 -10 1 -10 9 0 18 6 21 15 7z m1055 -36 c-7 -8 -17 -15 -23 -15
-5 0 -3 8 6 18 10 10 18 25 18 33 1 8 3 7 6 -4 3 -10 -1 -24 -7 -32z m-868 3
c-7 -7 -12 -8 -12 -2 0 14 12 26 19 19 2 -3 -1 -11 -7 -17z m-247 2 c-3 -5
-11 -10 -16 -10 -6 0 -7 5 -4 10 3 6 11 10 16 10 6 0 7 -4 4 -10z m-295 -15
c0 -8 -2 -15 -4 -15 -2 0 -6 7 -10 15 -3 8 -1 15 4 15 6 0 10 -7 10 -15z m675
-5 c-2 -27 -15 -38 -15 -13 0 16 8 33 15 33 1 0 1 -9 0 -20z m82 -5 c-5 -37
-18 -43 -15 -7 1 18 6 32 10 32 5 0 7 -11 5 -25z m209 9 c-3 -9 -6 -18 -6 -20
0 -3 -4 -3 -10 1 -11 7 -2 35 12 35 6 0 7 -7 4 -16z m44 6 c0 -5 -4 -10 -10
-10 -5 0 -10 5 -10 10 0 6 5 10 10 10 6 0 10 -4 10 -10z m124 -6 c5 -14 4 -15
-8 -5 -10 8 -16 9 -21 1 -3 -5 -11 -10 -16 -10 -14 0 13 29 27 30 7 0 15 -7
18 -16z m97 -22 c-6 -11 -9 -27 -6 -34 2 -7 -7 -21 -20 -31 -28 -20 -32 -12
-10 17 8 11 15 27 15 36 0 16 20 43 28 36 2 -2 -1 -13 -7 -24z m274 18 c-3 -5
-13 -10 -21 -10 -8 0 -12 5 -9 10 3 6 13 10 21 10 8 0 12 -4 9 -10z m-142 -15
c-3 -9 -8 -14 -10 -11 -3 3 -2 9 2 15 9 16 15 13 8 -4z m-831 -17 c-7 -7 -12
-8 -12 -2 0 14 12 26 19 19 2 -3 -1 -11 -7 -17z m760 0 c-6 -6 -15 -8 -19 -4
-4 4 -1 11 7 16 19 12 27 3 12 -12z m266 -18 c3 -30 2 -32 -12 -21 -13 11 -17
11 -22 -3 -10 -25 -22 -19 -17 9 3 13 10 23 17 22 6 -1 10 6 10 16 -3 33 20
11 24 -23z m-1308 10 c-8 -5 -17 -7 -19 -4 -3 3 1 9 9 14 8 5 17 7 19 4 3 -3
-1 -9 -9 -14z m620 0 c0 -5 -4 -10 -10 -10 -5 0 -10 5 -10 10 0 6 5 10 10 10
6 0 10 -4 10 -10z m120 -22 c0 -16 -3 -19 -11 -11 -6 6 -8 16 -5 22 11 17 16
13 16 -11z m454 13 c3 -5 -1 -11 -9 -14 -9 -4 -12 -1 -8 9 6 16 10 17 17 5z
m-1304 -11 c0 -5 -10 -10 -22 -9 -22 0 -22 1 -3 9 11 5 21 9 23 9 1 1 2 -3 2
-9z m56 -17 c-10 -10 -19 5 -10 18 6 11 8 11 12 0 2 -7 1 -15 -2 -18z m535 0
c-8 -15 -10 -15 -11 -2 0 17 10 32 18 25 2 -3 -1 -13 -7 -23z m80 -26 c-7 -7
-9 -1 -6 19 5 40 7 43 12 15 3 -13 0 -28 -6 -34z m539 44 c0 -6 -4 -13 -10
-16 -5 -3 -10 1 -10 9 0 9 5 16 10 16 6 0 10 -4 10 -9z m-1271 -43 c1 -5 -3
-8 -9 -8 -5 0 -10 12 -9 28 0 24 1 25 9 7 5 -11 9 -23 9 -27z m261 32 c0 -5
-5 -10 -11 -10 -5 0 -7 5 -4 10 3 6 8 10 11 10 2 0 4 -4 4 -10z m137 -12 c-3
-8 -6 -5 -6 6 -1 11 2 17 5 13 3 -3 4 -12 1 -19z m106 -22 c-4 -6 -8 -5 -11 2
-2 7 -8 10 -13 6 -5 -3 -9 2 -9 10 0 13 3 14 19 4 11 -7 17 -17 14 -22z m267
14 c0 -5 -2 -10 -4 -10 -3 0 -8 5 -11 10 -3 6 -1 10 4 10 6 0 11 -4 11 -10z
m810 -4 c0 -3 -4 -8 -10 -11 -5 -3 -10 -1 -10 4 0 6 5 11 10 11 6 0 10 -2 10
-4z"/>
<path d="M326 4615 c-71 -25 -91 -46 -94 -101 l-3 -49 23 22 c34 32 108 63
151 63 90 0 143 -55 135 -140 -7 -69 -38 -111 -142 -189 -155 -115 -196 -175
-196 -283 l0 -48 225 0 225 0 0 40 0 40 -181 0 -181 0 6 28 c11 45 38 73 148
157 116 88 162 138 178 194 13 47 13 122 -1 158 -36 97 -179 149 -293 108z"/>
<path d="M3980 4602 c-43 -48 -61 -72 -53 -71 11 1 88 89 77 89 -5 -1 -16 -8
-24 -18z"/>
<path d="M4395 4580 c3 -5 8 -10 11 -10 2 0 4 5 4 10 0 6 -5 10 -11 10 -5 0
-7 -4 -4 -10z"/>
<path d="M3560 4215 c-7 -8 -8 -15 -2 -15 5 0 15 7 22 15 7 8 8 15 2 15 -5 0
-15 -7 -22 -15z"/>
<path d="M4610 4211 c0 -6 4 -13 10 -16 6 -3 7 1 4 9 -7 18 -14 21 -14 7z"/>
<path d="M3550 4155 c-7 -9 -8 -15 -2 -15 5 0 12 7 16 15 3 8 4 15 2 15 -2 0
-9 -7 -16 -15z"/>
<path d="M4120 3311 c0 -6 -10 -9 -22 -9 -13 1 -36 1 -53 0 -23 -2 -27 -4 -15
-12 17 -11 70 -13 94 -4 17 7 22 34 6 34 -5 0 -10 -4 -10 -9z"/>
<path d="M3965 3270 c-3 -5 1 -10 9 -10 9 0 16 5 16 10 0 6 -4 10 -9 10 -6 0
-13 -4 -16 -10z"/>
<path d="M3892 2929 c-52 -17 -75 -32 -133 -88 -83 -82 -88 -105 -24 -108 27
-1 56 -10 74 -24 16 -12 34 -18 40 -15 6 4 11 3 11 -2 0 -12 77 -32 123 -32
53 0 107 75 107 150 0 27 2 29 18 19 21 -13 39 -52 45 -94 3 -23 9 -31 28 -33
13 -2 38 -14 54 -26 66 -49 91 -40 86 30 -6 105 -74 186 -186 223 -81 26 -160
26 -243 0z m78 -49 c0 -5 -7 -10 -15 -10 -8 0 -15 5 -15 10 0 6 7 10 15 10 8
0 15 -4 15 -10z"/>
<path d="M1497 2787 c-4 -10 -7 -26 -7 -35 1 -15 2 -15 11 1 6 10 9 25 7 35
-3 16 -4 15 -11 -1z"/>
<path d="M2536 2791 c-3 -5 10 -11 28 -13 19 -2 33 -1 30 3 -2 4 4 10 13 12
10 3 -1 5 -24 6 -23 0 -44 -3 -47 -8z"/>
<path d="M2145 2568 c-6 -5 -23 -19 -39 -32 -28 -24 -28 -46 0 -46 15 0 84 58
84 70 0 12 -34 18 -45 8z"/>
<path d="M4523 2562 c-6 -4 -13 -28 -16 -54 -3 -27 -1 -46 4 -42 5 3 9 17 10
32 l0 27 10 -24 c6 -16 6 -28 -2 -37 -9 -11 -9 -14 0 -14 19 0 24 27 15 75 -6
30 -13 42 -21 37z"/>
<path d="M2257 2512 c-22 -32 -22 -48 1 -44 19 4 51 41 52 60 0 22 -35 12 -53
-16z"/>
<path d="M2388 2493 c-2 -10 -1 -33 2 -52 5 -33 6 -34 23 -17 22 23 20 79 -4
84 -9 2 -18 -5 -21 -15z"/>
<path d="M4075 2190 c-47 -19 -70 -80 -31 -80 16 0 66 59 66 78 0 14 -7 14
-35 2z"/>
<path d="M4162 2147 c-16 -44 -15 -64 3 -71 17 -6 31 15 40 67 6 32 5 37 -12
37 -12 0 -23 -11 -31 -33z"/>
<path d="M4310 2138 c0 -13 4 -29 9 -37 12 -19 45 -6 37 15 -3 9 -6 22 -6 30
0 8 -9 14 -20 14 -14 0 -20 -7 -20 -22z"/>
<path d="M2696 1963 c-7 -22 4 -81 26 -135 10 -28 90 -88 115 -88 7 0 13 -3
13 -8 0 -8 73 -42 91 -42 6 0 32 -10 60 -21 42 -19 53 -20 79 -9 16 7 30 19
30 26 0 8 5 14 10 14 6 0 16 11 22 25 12 27 33 33 41 13 3 -10 9 -8 24 5 11
10 27 15 37 11 11 -4 16 -1 16 11 0 9 7 16 18 14 50 -5 72 1 72 21 0 41 -63
52 -122 21 -44 -22 -105 -33 -114 -20 -3 5 -10 7 -15 4 -5 -4 -9 1 -9 9 0 8
-9 20 -19 26 -11 5 -35 24 -53 40 -18 17 -40 30 -48 30 -9 0 -21 5 -28 12 -8
8 -12 8 -12 1 0 -20 -50 -24 -83 -8 -19 10 -33 12 -35 6 -2 -6 -21 1 -43 14
-21 14 -43 25 -48 25 -5 0 -11 6 -14 13 -2 7 -7 3 -11 -10z"/>
<path d="M1521 1838 c-16 -26 -11 -30 12 -8 10 10 14 20 10 23 -5 3 -15 -3
-22 -15z"/>
<path d="M1450 1645 c0 -15 4 -24 10 -20 6 3 10 12 10 20 0 8 -4 17 -10 20 -6
4 -10 -5 -10 -20z"/>
<path d="M1489 1349 c9 -21 22 -39 28 -39 9 0 8 10 -5 35 -24 49 -44 53 -23 4z"/>
<path d="M1590 1351 c0 -5 5 -13 10 -16 6 -3 10 -2 10 4 0 5 -4 13 -10 16 -5
3 -10 2 -10 -4z"/>
<path d="M3613 1209 c-15 -5 -24 -20 -28 -46 -34 -194 -54 -248 -132 -365 -25
-37 -42 -71 -39 -77 7 -11 46 -11 46 1 0 4 11 7 25 6 26 -2 36 -28 10 -28 -17
0 -20 -25 -5 -35 6 -3 10 -12 9 -18 0 -9 -2 -9 -6 1 -2 6 -11 12 -19 12 -8 0
-14 6 -14 13 0 15 -58 49 -71 41 -5 -3 -6 -16 -3 -30 5 -19 3 -23 -10 -18 -10
4 -25 -5 -40 -23 -31 -35 -31 -36 -4 -48 12 -6 24 -17 26 -25 4 -12 1 -11 -15
2 -11 10 -26 18 -34 18 -21 -1 -71 -48 -64 -60 4 -6 3 -9 -2 -8 -12 4 -53 -34
-47 -44 3 -4 -3 -11 -13 -15 -58 -21 -128 -100 -266 -298 -42 -60 -86 -122
-97 -137 l-21 -27 131 0 c114 1 130 3 130 17 1 15 2 15 14 -1 11 -14 25 -17
56 -15 l42 3 -20 25 c-10 14 -23 36 -27 50 l-7 25 20 -24 c12 -13 27 -36 34
-52 l13 -29 178 1 c143 1 179 4 184 15 3 8 10 11 15 8 6 -4 5 -10 -3 -15 -10
-6 -8 -9 8 -9 15 0 23 7 25 22 4 25 28 37 28 14 0 -9 -4 -16 -10 -16 -5 0 -10
-4 -10 -10 0 -5 20 -10 44 -10 35 0 45 4 49 20 5 20 27 28 27 10 0 -5 -4 -10
-10 -10 -5 0 -10 -4 -10 -10 0 -16 60 -11 78 7 16 16 17 16 20 0 3 -13 14 -17
46 -17 37 0 44 4 53 28 l11 27 1 -26 c1 -24 4 -26 55 -27 54 -1 55 0 59 31 l4
32 1 -32 c2 -38 28 -46 35 -10 l4 22 2 -23 1 -23 172 2 c165 1 171 2 148 19
-17 13 -19 19 -9 22 12 4 12 7 0 21 -17 21 -7 69 13 61 8 -3 13 -11 11 -17 -6
-16 15 -41 40 -51 18 -7 19 -8 3 -20 -30 -22 -5 -31 87 -32 50 -1 81 1 70 3
-11 3 -24 9 -30 15 -11 10 39 1 66 -13 8 -4 22 -3 30 2 11 7 11 9 -3 9 -10 0
-18 5 -18 10 0 15 20 12 69 -10 24 -11 62 -20 85 -19 l41 1 -32 10 c-18 6 -33
14 -33 17 0 11 20 36 20 26 0 -12 20 16 20 29 0 4 -8 6 -19 3 -11 -2 -24 3
-32 14 -7 11 -23 19 -34 20 -15 0 -14 3 9 11 22 8 42 6 90 -8 33 -10 70 -24
81 -31 11 -7 29 -13 40 -13 18 1 16 4 -10 25 -16 14 -29 32 -27 40 3 13 0 14
-15 4 -15 -9 -26 -7 -56 8 -20 11 -34 23 -31 26 3 3 22 -3 41 -14 47 -26 54
-17 8 11 -20 12 -32 26 -28 33 4 6 0 8 -9 4 -9 -3 -21 0 -28 6 -10 9 -11 7 -5
-11 6 -20 4 -21 -17 -13 -13 5 -36 17 -53 26 -23 13 -25 16 -7 12 15 -4 22 0
22 10 0 11 -7 14 -22 10 -21 -6 -23 -3 -23 38 0 34 3 41 13 33 7 -6 10 -19 7
-29 -5 -14 -1 -16 17 -12 13 3 20 2 16 -2 -9 -9 54 -55 75 -55 8 0 22 -9 32
-20 10 -11 20 -18 23 -15 3 2 26 -11 53 -29 43 -32 47 -33 52 -15 3 10 2 19
-2 19 -4 0 -23 14 -41 30 -19 17 -45 33 -57 36 -13 4 -23 12 -23 20 0 8 -7 14
-15 14 -10 0 -15 10 -15 31 0 23 -4 30 -15 26 -8 -4 -22 4 -34 18 -20 26 -47
33 -53 13 -3 -7 -9 -8 -18 -3 -19 12 23 27 78 27 32 1 47 -4 57 -19 8 -11 11
-23 8 -27 -4 -4 3 -13 14 -21 15 -11 19 -21 15 -37 -5 -21 -4 -22 11 -9 22 18
47 -1 47 -35 0 -32 18 -31 22 2 l3 26 28 -26 c15 -14 37 -26 48 -26 18 0 18 2
-7 25 -15 14 -31 25 -37 25 -5 0 -4 7 3 15 13 16 10 18 -33 15 -15 -1 -27 2
-26 7 5 30 -4 43 -38 53 -25 7 -48 24 -68 50 -16 21 -33 39 -37 40 -15 0 -8
-23 10 -36 15 -12 14 -13 -12 -11 -15 1 -30 7 -33 14 -3 6 -11 9 -19 6 -9 -3
-14 1 -14 12 0 14 -3 15 -14 6 -10 -8 -21 -8 -40 -1 -35 13 -56 13 -56 0 0 -5
11 -10 25 -10 14 0 25 -4 25 -10 0 -5 -4 -10 -9 -10 -5 0 -14 -12 -19 -27 -7
-19 -11 -22 -11 -10 -1 11 -6 15 -12 11 -6 -4 -9 -19 -5 -36 3 -18 2 -27 -4
-23 -6 3 -10 -1 -10 -9 0 -9 5 -16 11 -16 5 0 7 -4 4 -10 -10 -16 -35 -12 -29
4 4 10 -6 18 -32 25 -21 6 -39 9 -40 8 -1 -1 -9 -19 -17 -40 -14 -32 -14 -37
-1 -37 7 0 14 7 14 15 0 40 32 -7 34 -50 1 -5 6 -13 11 -17 6 -4 10 -13 10
-20 0 -7 9 -17 20 -23 11 -5 31 -18 45 -28 21 -15 23 -19 10 -27 -9 -6 -16 -6
-18 0 -2 6 -13 10 -25 10 -29 0 -71 22 -66 35 2 5 9 9 16 7 9 -2 8 4 -2 24 -7
15 -11 33 -8 40 3 8 0 14 -6 14 -6 0 -11 -9 -11 -19 0 -11 -9 -23 -20 -26 -11
-4 -18 -11 -14 -16 3 -6 13 -8 23 -5 13 5 12 3 -2 -8 -15 -12 -16 -18 -7 -35
6 -12 20 -21 30 -21 11 0 20 -5 20 -11 0 -5 3 -8 8 -5 11 7 72 -21 72 -34 0
-8 -6 -7 -21 1 -12 6 -30 8 -41 6 -21 -6 -108 22 -108 35 0 4 5 8 10 8 6 0 10
5 10 10 0 6 -11 8 -25 4 -31 -8 -32 3 -3 27 21 19 21 19 0 19 -11 0 -23 6 -25
13 -4 7 -6 6 -6 -5 -1 -14 -6 -15 -36 -5 -34 10 -48 27 -22 27 8 0 7 4 -3 10
-13 8 -11 11 7 16 26 7 39 34 21 46 -10 6 -9 8 3 8 9 0 22 12 29 28 11 22 14
24 18 9 2 -10 -2 -26 -10 -35 -16 -20 -48 -78 -48 -86 0 -16 21 -3 34 22 8 15
27 40 41 55 15 16 28 34 29 40 3 18 28 61 40 69 8 5 7 8 -1 8 -7 0 -10 7 -7
15 4 8 13 15 21 15 8 0 12 4 9 9 -4 5 17 20 45 32 l51 23 -36 29 c-36 29 -45
54 -25 74 7 7 1 18 -21 37 -31 25 -57 35 -45 17 3 -5 -3 -12 -14 -16 -10 -3
-22 -16 -25 -28 l-7 -22 -12 24 c-9 19 -8 25 6 36 9 6 14 15 10 18 -11 12 -23
8 -23 -8 0 -8 -5 -15 -11 -15 -6 0 -9 7 -5 15 3 9 0 15 -10 15 -11 0 -14 5 -9
18 3 9 7 19 7 22 2 22 -5 30 -26 30 -14 0 -28 5 -31 10 -3 6 -18 10 -32 10
-18 0 -24 4 -19 15 3 10 1 15 -7 13 -16 -4 -54 35 -49 50 2 7 -1 12 -6 12 -6
0 -12 -5 -14 -12 -3 -7 -12 -9 -22 -5 -14 6 -16 10 -7 20 8 11 4 13 -24 12
-23 0 -31 3 -25 9 14 14 12 26 -5 26 -8 0 -15 6 -15 14 0 20 -17 29 -26 15 -4
-8 -3 -9 4 -5 7 4 12 3 12 -3 0 -5 -6 -11 -12 -14 -18 -6 25 -63 45 -59 9 1
18 -7 22 -18 3 -11 13 -20 21 -20 8 0 14 -4 14 -10 0 -5 -7 -10 -15 -10 -15 0
-19 -10 -16 -42 1 -10 -3 -18 -8 -18 -6 0 -12 7 -12 15 -1 8 -3 20 -4 25 -1 6
-3 15 -4 21 0 5 -6 7 -11 4 -6 -3 -14 5 -20 20 -5 14 -17 28 -25 32 -9 3 -14
12 -11 19 3 9 -2 14 -13 14 -22 0 -46 50 -37 78 4 11 2 23 -3 27 -6 3 -8 0 -5
-9 4 -12 -2 -13 -35 -9 -34 5 -41 3 -41 -11 0 -9 -4 -16 -10 -16 -5 0 -7 -7
-4 -15 5 -12 10 -13 20 -4 8 6 14 18 14 25 0 19 26 18 34 -2 9 -23 8 -24 -13
-24 -23 0 -35 -48 -18 -69 9 -11 9 -15 0 -18 -7 -3 -13 -18 -13 -33 0 -31 15
-48 23 -28 3 7 6 0 6 -16 1 -27 3 -28 34 -22 26 5 29 4 16 -7 -8 -6 -19 -21
-24 -32 -8 -19 -9 -19 -12 3 -3 12 -11 22 -19 22 -8 0 -12 5 -9 11 4 6 -2 17
-13 25 -19 13 -23 44 -12 89 5 22 -1 56 -9 51 -5 -3 -7 -15 -4 -26 6 -23 -2
-26 -21 -8 -10 9 -11 20 -5 37 11 26 3 43 -10 22 -5 -8 -11 -9 -15 -3 -3 6 8
15 24 21 34 11 43 36 9 26 -15 -5 -22 -2 -26 15 -3 12 -11 19 -19 16 -7 -3
-18 2 -24 10 -10 12 -8 14 13 14 14 0 30 -6 34 -13 4 -8 21 -17 36 -21 20 -5
27 -3 22 5 -5 8 -1 9 14 4 17 -5 20 -3 15 10 -5 13 -15 15 -43 11 -34 -6 -35
-5 -17 9 11 8 18 15 15 16 -2 0 -22 2 -44 3 -36 1 -40 4 -43 29 -3 22 -8 27
-32 27 -29 0 -49 15 -29 22 7 2 -1 12 -17 22 -15 11 -39 30 -51 43 -13 12 -30
24 -38 24 -8 1 -20 2 -26 3 -6 0 -16 8 -22 17 -9 12 -18 14 -34 8z m37 -53 c0
-8 3 -23 6 -33 5 -13 4 -15 -5 -7 -15 14 -23 54 -10 54 5 0 9 -6 9 -14z m86
-81 c-9 -9 -16 -13 -16 -8 0 12 22 34 28 28 2 -2 -3 -11 -12 -20z m44 11 c0
-3 -4 -8 -10 -11 -5 -3 -10 -1 -10 4 0 6 5 11 10 11 6 0 10 -2 10 -4z m-140
-22 c0 -8 -4 -12 -10 -9 -5 3 -10 10 -10 16 0 5 5 9 10 9 6 0 10 -7 10 -16z
m-10 -44 c0 -5 -2 -10 -4 -10 -3 0 -8 5 -11 10 -3 6 -1 10 4 10 6 0 11 -4 11
-10z m145 0 c3 -6 -1 -7 -9 -4 -18 7 -21 14 -7 14 6 0 13 -4 16 -10z m-75 -20
c0 -5 -5 -10 -11 -10 -6 0 -8 -7 -5 -16 4 -10 1 -14 -6 -12 -16 6 -18 30 -3
40 14 11 25 10 25 -2z m-50 -21 c0 -6 -4 -7 -10 -4 -5 3 -10 11 -10 16 0 6 5
7 10 4 6 -3 10 -11 10 -16z m4 -48 c-6 -6 -34 21 -46 43 -7 15 -1 12 20 -9 16
-16 28 -32 26 -34z m121 -9 c2 -29 -22 -36 -36 -10 -9 16 -8 22 2 29 20 13 32
6 34 -19z m75 -34 c0 -19 -16 -5 -17 14 -2 18 0 20 7 8 5 -8 10 -18 10 -22z
m-205 12 c3 -5 1 -10 -4 -10 -6 0 -11 5 -11 10 0 6 2 10 4 10 3 0 8 -4 11 -10z
m-71 -15 c3 -9 0 -15 -9 -15 -8 0 -15 7 -15 15 0 8 4 15 9 15 5 0 11 -7 15
-15z m326 -33 c-5 -2 -8 -8 -4 -13 3 -5 -1 -9 -9 -9 -10 0 -13 7 -10 20 3 12
0 20 -6 20 -7 0 -10 4 -6 10 3 5 14 2 26 -8 11 -9 15 -18 9 -20z m-188 6 c2
-18 9 -23 31 -21 15 1 27 -3 27 -9 0 -5 7 -7 16 -4 14 5 15 4 4 -9 -11 -14
-15 -14 -36 0 -25 16 -40 6 -30 -20 3 -8 1 -15 -4 -15 -6 0 -10 5 -10 11 0 6
-9 22 -20 36 -15 20 -17 29 -9 39 17 20 27 17 31 -8z m298 -8 c0 -5 -4 -10
-10 -10 -5 0 -10 5 -10 10 0 6 5 10 10 10 6 0 10 -4 10 -10z m-350 -20 c6 -11
8 -25 4 -31 -3 -6 2 -16 12 -24 11 -7 15 -17 11 -22 -13 -12 -38 28 -31 50 4
13 0 20 -15 24 -24 6 -28 23 -6 23 8 0 19 -9 25 -20z m390 1 c0 -5 -7 -14 -15
-21 -16 -14 -18 -10 -9 14 6 17 24 22 24 7z m-160 -31 c0 -5 -4 -10 -10 -10
-5 0 -10 5 -10 10 0 6 5 10 10 10 6 0 10 -4 10 -10z m37 4 c-3 -3 -12 -4 -19
-1 -8 3 -5 6 6 6 11 1 17 -2 13 -5z m147 -19 c-6 -16 -24 -21 -24 -7 0 11 11
22 21 22 5 0 6 -7 3 -15z m-514 -6 c0 -8 6 -7 17 2 15 12 16 12 8 -1 -17 -31
-27 -39 -41 -33 -8 3 -14 9 -14 15 0 5 5 6 12 2 8 -5 9 -2 5 9 -3 10 -2 17 3
17 6 0 10 -5 10 -11z m370 -9 c-6 -11 -8 -25 -5 -30 3 -5 1 -11 -5 -15 -5 -3
-10 -1 -10 4 0 6 -9 11 -20 11 -20 0 -20 0 -1 19 15 15 32 25 49 30 1 1 -2 -8
-8 -19z m-100 -11 c0 -5 5 -8 11 -6 6 1 14 -4 16 -10 3 -10 -4 -9 -33 1 -44
15 -58 36 -19 29 14 -3 25 -9 25 -14z m-158 -43 c-4 -7 -8 -5 -10 7 -2 9 -7
17 -12 17 -4 0 -11 8 -14 17 -5 13 0 11 18 -6 14 -13 22 -29 18 -35z m590 36
c-13 -4 -17 -32 -4 -33 4 0 16 -3 27 -6 11 -3 31 -5 44 -5 13 0 20 -3 14 -6
-5 -4 -13 -16 -17 -27 -7 -19 -8 -19 -20 4 -10 19 -15 21 -22 10 -5 -8 -7 -22
-5 -33 1 -11 -2 -16 -8 -11 -6 3 -9 10 -6 14 2 5 -4 16 -15 26 -11 10 -20 24
-20 32 0 21 23 52 34 46 6 -4 5 -8 -2 -11z m-541 -6 c-9 -10 -8 -15 4 -20 8
-3 15 -10 15 -16 0 -6 -4 -9 -9 -6 -5 3 -12 -2 -16 -12 -6 -14 -9 -12 -16 11
-9 35 -2 57 18 57 12 0 13 -3 4 -14z m-131 -6 c0 -5 -2 -10 -4 -10 -3 0 -8 5
-11 10 -3 6 -1 10 4 10 6 0 11 -4 11 -10z m30 -10 c0 -5 0 -13 -1 -16 0 -3 8
-12 18 -19 22 -16 9 -33 -15 -19 -17 11 -26 64 -11 64 5 0 9 -4 9 -10z m407
-12 c-3 -8 -6 -5 -6 6 -1 11 2 17 5 13 3 -3 4 -12 1 -19z m108 2 c-3 -5 -11
-10 -16 -10 -6 0 -7 5 -4 10 3 6 11 10 16 10 6 0 7 -4 4 -10z m75 -46 c-14
-37 -24 -23 -15 23 5 30 9 34 16 21 6 -10 5 -27 -1 -44z m-310 32 c0 -8 5 -16
12 -18 6 -2 8 -10 4 -17 -6 -9 -12 -5 -22 14 -17 32 -17 35 -4 35 6 0 10 -6
10 -14z m60 4 c0 -5 -2 -10 -4 -10 -3 0 -8 5 -11 10 -3 6 -1 10 4 10 6 0 11
-4 11 -10z m-95 -10 c3 -5 1 -10 -4 -10 -6 0 -11 5 -11 10 0 6 2 10 4 10 3 0
8 -4 11 -10z m234 -16 c3 -16 1 -17 -13 -5 -19 16 -21 34 -3 29 6 -3 14 -13
16 -24z m35 1 c3 -9 0 -15 -9 -15 -9 0 -12 6 -9 15 4 8 7 15 9 15 2 0 5 -7 9
-15z m-389 -6 c11 -17 -1 -21 -15 -4 -8 9 -8 15 -2 15 6 0 14 -5 17 -11z m115
-36 c0 -19 -31 -16 -60 7 l-25 20 23 0 c12 0 22 5 22 12 0 6 9 3 20 -7 11 -10
20 -24 20 -32z m301 10 c-9 -16 -10 -14 -11 12 0 21 3 26 11 18 8 -8 8 -16 0
-30z m-199 5 c2 -15 10 -24 23 -24 35 -3 36 -4 29 -15 -12 -19 -13 -89 -2 -89
15 0 78 -66 71 -74 -9 -9 -35 -7 -29 2 8 13 -19 40 -40 39 -15 -2 -20 5 -22
36 -3 38 -22 53 -22 17 0 -11 -5 -20 -11 -20 -8 0 -9 13 -5 40 8 49 -9 54 -18
5 -4 -19 -12 -35 -18 -35 -9 0 -9 -3 0 -12 14 -14 17 -82 3 -74 -15 10 -24 85
-12 100 6 7 13 23 15 37 3 13 5 26 6 29 2 3 2 9 1 14 -3 15 10 46 19 46 5 0
10 -10 12 -22z m286 -3 c0 -14 -4 -25 -9 -25 -5 0 -9 11 -9 25 0 14 4 25 9 25
5 0 9 -11 9 -25z m102 9 c0 -8 -5 -12 -10 -9 -6 4 -8 11 -5 16 9 14 15 11 15
-7z m-740 -15 c0 -6 -4 -7 -10 -4 -5 3 -10 11 -10 16 0 6 5 7 10 4 6 -3 10
-11 10 -16z m-247 -16 c-4 -11 -3 -14 5 -9 7 4 12 2 12 -3 0 -6 -7 -11 -15
-11 -15 0 -21 21 -8 33 11 11 13 8 6 -10z m62 -10 c0 -13 -6 -23 -12 -23 -7 0
-13 -4 -13 -10 0 -5 -5 -10 -12 -10 -6 0 -3 9 7 20 14 16 15 23 6 34 -10 12
-9 15 6 13 12 0 18 -9 18 -24z m228 12 c4 10 10 15 13 12 3 -3 -1 -15 -9 -27
-13 -18 -15 -19 -21 -5 -3 9 -6 22 -5 28 0 7 4 3 8 -7 7 -19 8 -19 14 -1z
m477 11 c0 -9 -30 -14 -35 -6 -4 6 3 10 14 10 12 0 21 -2 21 -4z m-51 -28 c-1
-7 -5 -24 -9 -38 -7 -22 -8 -21 -9 13 -1 20 4 37 9 37 6 0 10 -6 9 -12z m201
-4 c0 -8 -5 -12 -10 -9 -6 4 -8 11 -5 16 9 14 15 11 15 -7z m-40 -24 c0 -11
-4 -22 -10 -25 -5 -3 -10 0 -10 9 0 8 -3 22 -6 30 -5 12 -2 15 10 10 9 -3 16
-14 16 -24z m-198 -13 c-7 -8 -9 -17 -5 -20 3 -4 1 -7 -5 -7 -13 0 -15 19 -6
45 5 11 10 13 17 6 7 -7 7 -15 -1 -24z m-235 -34 c0 -15 -2 -22 -4 -15 -6 16
-23 16 -23 -1 0 -8 -11 -19 -25 -25 -23 -11 -25 -10 -24 16 1 17 3 20 6 10 6
-24 24 -23 30 1 3 11 12 22 22 24 12 3 9 7 -11 17 -16 7 -28 17 -28 22 0 5 13
2 29 -6 21 -11 28 -22 28 -43z m80 40 c5 -15 -37 -54 -50 -46 -5 3 1 14 13 23
14 11 20 22 15 30 -5 8 -3 11 5 8 8 -2 15 -9 17 -15z m543 2 c0 -8 -2 -15 -4
-15 -2 0 -6 7 -10 15 -3 8 -1 15 4 15 6 0 10 -7 10 -15z m-158 -17 c-7 -7 -12
-8 -12 -2 0 14 12 26 19 19 2 -3 -1 -11 -7 -17z m-689 -15 c-5 -12 -3 -14 8
-8 11 6 12 5 2 -6 -15 -15 -40 2 -29 20 11 17 26 13 19 -6z m806 -10 c0 -25
-1 -25 -8 -8 -5 11 -7 23 -4 28 8 14 13 7 12 -20z m-279 13 c0 -11 -19 -15
-25 -6 -3 5 1 10 9 10 9 0 16 -2 16 -4z m30 -6 c0 -5 -2 -10 -4 -10 -3 0 -8 5
-11 10 -3 6 -1 10 4 10 6 0 11 -4 11 -10z m-805 -27 l18 -28 -21 19 c-12 11
-22 23 -22 28 0 14 7 9 25 -19z m115 -9 c0 -3 -7 -1 -15 6 -8 7 -15 17 -15 22
0 5 7 3 15 -6 8 -8 15 -18 15 -22z m760 26 c0 -5 -5 -10 -11 -10 -5 0 -7 5 -4
10 3 6 8 10 11 10 2 0 4 -4 4 -10z m44 -5 c-4 -8 -11 -15 -16 -15 -6 0 -5 6 2
15 7 8 14 15 16 15 2 0 1 -7 -2 -15z m216 -10 c0 -8 -4 -17 -10 -20 -6 -4 -10
5 -10 20 0 15 4 24 10 20 6 -3 10 -12 10 -20z m-1180 5 c0 -5 -2 -10 -4 -10
-3 0 -8 5 -11 10 -3 6 -1 10 4 10 6 0 11 -4 11 -10z m320 -20 c0 -5 -2 -10 -4
-10 -3 0 -8 5 -11 10 -3 6 -1 10 4 10 6 0 11 -4 11 -10z m600 -5 c0 -8 -4 -15
-10 -15 -5 0 -10 7 -10 15 0 8 5 15 10 15 6 0 10 -7 10 -15z m-503 -11 c2 -7
-6 -10 -21 -7 -14 3 -23 10 -20 15 8 12 36 6 41 -8z m253 6 c0 -5 -5 -10 -11
-10 -5 0 -7 5 -4 10 3 6 8 10 11 10 2 0 4 -4 4 -10z m190 -34 c-5 -5 -6 -15
-3 -22 3 -9 -2 -14 -13 -14 -9 0 -14 3 -11 7 4 3 2 12 -4 20 -7 8 -8 13 -1 13
5 0 8 10 5 23 l-6 22 20 -20 c12 -11 17 -24 13 -29z m-892 9 c-3 -3 -9 2 -12
12 -6 14 -5 15 5 6 7 -7 10 -15 7 -18z m276 -6 c-3 -5 -12 -9 -20 -9 -10 0 -9
-5 6 -20 11 -11 20 -26 20 -32 -1 -7 -12 0 -25 16 -18 22 -21 34 -14 47 5 11
16 16 24 13 8 -4 12 -10 9 -15z m246 17 c0 -3 -4 -8 -10 -11 -5 -3 -10 -1 -10
4 0 6 5 11 10 11 6 0 10 -2 10 -4z m-546 -22 c3 -8 2 -12 -4 -9 -6 3 -10 10
-10 16 0 14 7 11 14 -7z m146 6 c0 -5 7 -10 15 -10 8 0 15 -2 15 -4 0 -2 3
-12 6 -20 5 -12 2 -15 -10 -10 -9 4 -15 9 -12 11 3 3 -5 14 -17 24 -12 10 -16
18 -9 19 6 0 12 -4 12 -10z m676 -40 c8 0 14 -4 14 -10 0 -5 -5 -10 -11 -10
-12 0 -44 30 -32 30 4 0 2 4 -6 9 -8 5 -10 14 -5 22 5 9 10 5 17 -14 5 -15 15
-27 23 -27z m133 4 c-10 -24 -13 -26 -17 -10 -2 10 2 22 8 26 7 5 9 14 5 21
-6 10 -5 11 4 3 9 -8 9 -17 0 -40z m91 25 c0 -11 -4 -18 -10 -14 -5 3 -7 12
-3 20 7 21 13 19 13 -6z m36 -6 c-10 -10 -19 5 -10 18 6 11 8 11 12 0 2 -7 1
-15 -2 -18z m-426 1 c0 -8 -5 -12 -10 -9 -6 4 -8 11 -5 16 9 14 15 11 15 -7z
m-31 -49 c-4 -11 -10 -37 -14 -57 -6 -39 -19 -49 -29 -23 -3 8 -2 15 3 15 18
0 19 55 3 74 -10 11 -12 16 -5 12 7 -4 18 2 25 14 12 18 13 18 19 2 3 -9 3
-26 -2 -37z m-258 11 c22 -1 41 -26 19 -26 -17 0 -60 31 -60 44 0 6 4 5 9 -3
5 -7 19 -14 32 -15z m488 -44 c-14 -28 -28 -42 -41 -42 -11 0 -22 -8 -25 -20
-3 -11 -9 -20 -13 -20 -5 0 -12 9 -15 20 -3 11 -11 20 -16 20 -5 0 -9 8 -9 19
0 22 -25 45 -40 36 -5 -3 -10 -3 -10 2 0 4 14 16 31 26 l31 17 -6 -26 c-6 -21
-4 -25 8 -21 11 4 18 -2 22 -20 6 -23 8 -24 17 -7 7 13 7 19 -1 22 -12 4 -17
32 -6 32 12 0 30 -26 27 -37 -2 -6 0 -14 5 -17 5 -3 18 15 28 39 12 31 21 41
26 32 4 -8 -2 -32 -13 -55z m258 46 c-3 -8 -6 -5 -6 6 -1 11 2 17 5 13 3 -3 4
-12 1 -19z m-867 -7 c0 -11 -4 -22 -9 -25 -5 -3 -8 5 -7 19 1 29 16 34 16 6z
m421 -8 c1 -10 0 -28 0 -40 -1 -11 3 -24 8 -28 14 -8 14 -35 1 -35 -5 0 -10 7
-10 16 0 9 -6 14 -12 11 -9 -3 -13 10 -14 44 -1 35 3 49 12 49 8 0 14 -8 15
-17z m-458 -13 c3 -11 1 -23 -4 -26 -5 -3 -9 4 -9 15 0 12 -5 21 -10 21 -6 0
-8 -11 -4 -27 l6 -28 -17 24 c-15 19 -15 25 -4 32 22 14 36 10 42 -11z m277
-6 c0 -8 -7 -14 -15 -14 -17 0 -18 2 -9 24 7 18 24 12 24 -10z m44 11 c-4 -8
-10 -15 -15 -15 -4 0 -6 7 -3 15 4 8 10 15 15 15 4 0 6 -7 3 -15z m410 -4 c2
-3 -3 -19 -10 -36 l-13 -30 -1 33 c0 17 -4 32 -10 32 -5 0 -10 4 -10 9 0 10
38 3 44 -8z m216 15 c0 -3 -4 -8 -10 -11 -5 -3 -10 -1 -10 4 0 6 5 11 10 11 6
0 10 -2 10 -4z m45 -16 c16 -17 16 -20 3 -15 -9 4 -19 13 -22 21 -7 19 -2 18
19 -6z m-145 -10 c-6 -11 -9 -24 -6 -29 3 -5 -2 -15 -11 -22 -15 -13 -16 -11
-9 16 7 28 23 55 33 55 2 0 -1 -9 -7 -20z m-980 -5 c8 -9 8 -15 2 -15 -18 0
-42 12 -42 21 0 14 26 10 40 -6z m487 -9 c-4 -9 -14 -12 -27 -9 -21 6 -21 6 2
18 27 14 33 12 25 -9z m-110 -2 c4 -11 13 -14 31 -9 20 5 23 3 18 -10 -3 -9
-6 -23 -6 -30 0 -8 -13 -2 -32 16 -18 16 -36 29 -40 29 -5 0 -8 5 -8 10 0 16
30 11 37 -6z m819 3 c11 -11 -19 -8 -36 3 -12 8 -10 9 7 7 12 -2 26 -6 29 -10z
m-881 -7 c3 -5 1 -10 -4 -10 -6 0 -11 5 -11 10 0 6 2 10 4 10 3 0 8 -4 11 -10z
m740 0 c-3 -5 -11 -10 -16 -10 -6 0 -7 5 -4 10 3 6 11 10 16 10 6 0 7 -4 4
-10z m-129 -58 c-12 -11 -17 7 -9 34 l8 29 3 -28 c2 -16 1 -31 -2 -35z m-959
26 c-3 -8 -6 -5 -6 6 -1 11 2 17 5 13 3 -3 4 -12 1 -19z m-58 -1 c-9 -7 -19
-21 -21 -32 -4 -19 -4 -19 -16 3 -11 18 -10 22 3 22 8 0 15 5 15 10 0 6 8 10
18 10 16 -1 16 -2 1 -13z m331 2 c0 -7 -26 -19 -41 -19 -5 0 -9 6 -9 14 0 9
10 13 25 12 14 0 25 -4 25 -7z m47 -21 c-3 -7 -5 -2 -5 12 0 14 2 19 5 13 2
-7 2 -19 0 -25z m513 6 c0 -8 -6 -14 -14 -14 -9 0 -12 7 -9 20 6 22 23 18 23
-6z m-427 -18 c-3 -4 -9 -2 -14 5 -13 22 -11 31 5 17 8 -7 12 -17 9 -22z m292
9 c16 -13 26 -27 22 -31 -3 -4 -13 -2 -20 5 -11 9 -17 8 -27 -4 -7 -8 -16 -15
-21 -15 -16 0 -10 28 7 34 13 5 14 9 4 21 -19 23 2 17 35 -10z m82 -7 c-3 -8
-6 -5 -6 6 -1 11 2 17 5 13 3 -3 4 -12 1 -19z m93 12 c0 -5 -5 -10 -11 -10 -5
0 -7 5 -4 10 3 6 8 10 11 10 2 0 4 -4 4 -10z m-666 -15 c-4 -8 -8 -15 -10 -15
-2 0 -4 7 -4 15 0 8 4 15 10 15 5 0 7 -7 4 -15z m96 11 c0 -2 3 -13 6 -23 6
-15 4 -16 -7 -5 -7 6 -21 12 -32 12 -10 0 -15 5 -12 10 6 10 45 15 45 6z m197
-23 c-1 -14 -8 -28 -16 -31 -9 -3 -11 0 -6 8 4 7 2 16 -5 20 -15 9 -5 30 15
30 9 0 13 -10 12 -27z m-610 -19 c-9 -9 -27 6 -27 22 0 13 2 13 16 -1 9 -9 14
-18 11 -21z m705 24 c-16 -21 -3 -78 19 -78 11 0 19 -4 19 -9 0 -15 -40 0 -50
20 -6 10 -17 16 -25 13 -8 -4 -15 -1 -15 6 0 6 -4 8 -10 5 -5 -3 -10 -15 -10
-26 0 -11 -7 -28 -16 -37 -15 -15 -16 -15 -11 3 3 11 9 32 13 48 3 15 10 27
15 27 5 0 9 7 9 15 0 8 5 15 10 15 6 0 10 -9 10 -20 0 -11 5 -20 11 -20 6 0 9
9 6 20 -4 17 4 27 27 29 5 1 4 -5 -2 -11z m-792 -71 c10 -46 1 -41 -16 9 -7
20 -10 44 -6 53 5 13 7 13 10 -4 2 -11 7 -37 12 -58z m300 63 c0 -5 -4 -10 -9
-10 -6 0 -13 5 -16 10 -3 6 1 10 9 10 9 0 16 -4 16 -10z m710 0 c0 -5 -5 -10
-11 -10 -5 0 -7 5 -4 10 3 6 8 10 11 10 2 0 4 -4 4 -10z m565 0 c3 -5 -1 -10
-9 -10 -9 0 -16 5 -16 10 0 6 4 10 9 10 6 0 13 -4 16 -10z m-525 -21 c0 -6 -4
-7 -10 -4 -5 3 -10 11 -10 16 0 6 5 7 10 4 6 -3 10 -11 10 -16z m-902 -25 c-4
-3 -12 5 -18 18 -12 22 -12 22 6 6 10 -10 15 -20 12 -24z m422 10 c0 -22 -2
-25 -15 -14 -12 10 -13 16 -4 26 16 20 19 18 19 -12z m910 16 c0 -5 -2 -10 -4
-10 -3 0 -8 5 -11 10 -3 6 -1 10 4 10 6 0 11 -4 11 -10z m-976 -15 c3 -9 0
-15 -9 -15 -8 0 -15 7 -15 15 0 8 4 15 9 15 5 0 11 -7 15 -15z m-434 -26 c0
-10 -4 -19 -9 -19 -10 0 -21 36 -14 44 10 10 23 -5 23 -25z m43 12 c3 -14 1
-18 -9 -14 -8 3 -14 11 -14 19 0 21 17 17 23 -5z m167 4 c11 -13 10 -14 -4 -9
-9 3 -16 10 -16 15 0 13 6 11 20 -6z m120 -6 c0 -5 -4 -9 -10 -9 -5 0 -10 7
-10 16 0 8 5 12 10 9 6 -3 10 -10 10 -16z m630 12 c0 -5 3 -17 7 -27 4 -11 3
-15 -4 -11 -14 9 -24 47 -12 47 5 0 9 -4 9 -9z m516 1 c-2 -4 9 -17 25 -27 16
-11 29 -23 29 -27 0 -14 -28 -8 -34 7 -3 8 -10 15 -16 15 -6 0 -8 -5 -4 -12 4
-7 3 -8 -4 -4 -7 4 -12 14 -12 22 0 8 -4 14 -10 14 -5 0 -10 5 -10 10 0 6 9
10 21 10 11 0 18 -4 15 -8z m-1309 -24 c-2 -12 -9 -24 -15 -26 -7 -2 -10 3 -6
12 3 9 1 16 -6 16 -6 0 -8 5 -5 10 12 19 35 11 32 -12z m113 12 c0 -5 -5 -10
-11 -10 -5 0 -7 5 -4 10 3 6 8 10 11 10 2 0 4 -4 4 -10z m280 -6 c0 -8 -4 -12
-10 -9 -5 3 -10 10 -10 16 0 5 5 9 10 9 6 0 10 -7 10 -16z m437 -16 c-3 -8 -6
-5 -6 6 -1 11 2 17 5 13 3 -3 4 -12 1 -19z m437 6 c3 -8 2 -12 -4 -9 -6 3 -10
10 -10 16 0 14 7 11 14 -7z m-1314 -10 c0 -14 -3 -14 -15 -4 -8 7 -15 14 -15
16 0 2 7 4 15 4 8 0 15 -7 15 -16z m575 6 c3 -6 -4 -10 -17 -10 -18 0 -20 2
-8 10 19 12 18 12 25 0z m182 -12 c-4 -15 1 -30 15 -45 12 -13 19 -26 15 -29
-3 -4 -17 6 -30 22 -20 23 -23 32 -14 51 13 29 21 30 14 1z m-542 -17 c-6 -5
-25 10 -25 20 0 5 6 4 14 -3 8 -7 12 -15 11 -17z m74 20 c9 -6 11 -16 6 -32
-10 -31 -35 -69 -46 -69 -4 0 -5 10 -2 23 3 12 7 37 10 55 5 34 10 37 32 23z
m511 5 c0 -2 -8 -10 -17 -17 -16 -13 -17 -12 -4 4 13 16 21 21 21 13z m-735
-46 c-10 -11 -22 -17 -28 -13 -6 4 -1 14 13 25 29 23 39 15 15 -12z m604 16
c10 -12 8 -13 -8 -9 -12 3 -18 9 -15 14 7 12 10 11 23 -5z m783 7 c-6 -2 -9
-9 -6 -15 4 -6 1 -9 -6 -6 -24 8 -23 28 2 27 13 0 17 -3 10 -6z m-1486 -30
c-10 -10 -19 5 -10 18 6 11 8 11 12 0 2 -7 1 -15 -2 -18z m588 18 c6 -10 -16
-21 -42 -21 -13 0 -12 3 4 15 22 17 31 18 38 6z m51 -1 c3 -5 -1 -10 -9 -10
-9 0 -16 5 -16 10 0 6 4 10 9 10 6 0 13 -4 16 -10z m-725 -21 c0 -5 -4 -9 -10
-9 -5 0 -10 7 -10 16 0 8 5 12 10 9 6 -3 10 -10 10 -16z m226 -24 c-15 -33
-26 -31 -26 3 0 35 9 45 25 32 10 -8 10 -16 1 -35z m844 13 c0 -16 -3 -19 -11
-11 -6 6 -8 16 -5 22 11 17 16 13 16 -11z m-550 -31 c0 -10 -4 -15 -10 -12 -5
3 -10 18 -10 33 0 21 2 24 10 12 5 -8 10 -23 10 -33z m50 13 c-8 -5 -17 -7
-19 -4 -3 3 1 9 9 14 8 5 17 7 19 4 3 -3 -1 -9 -9 -14z m175 2 c-3 -3 -11 0
-18 7 -9 10 -8 11 6 5 10 -3 15 -9 12 -12z m443 -47 c-5 -5 -12 -5 -20 3 -9 9
-8 18 3 38 l14 27 6 -29 c3 -16 2 -33 -3 -39z m-1034 32 c6 -9 7 -19 4 -23 -9
-8 -38 20 -38 36 0 16 21 8 34 -13z m456 13 c0 -5 -4 -10 -10 -10 -5 0 -10 5
-10 10 0 6 5 10 10 10 6 0 10 -4 10 -10z m50 1 c0 -14 -29 -21 -36 -9 -4 7 -3
8 4 4 7 -4 12 -2 12 3 0 6 5 11 10 11 6 0 10 -4 10 -9z m45 -1 c-3 -5 -13 -10
-21 -10 -8 0 -12 5 -9 10 3 6 13 10 21 10 8 0 12 -4 9 -10z m85 -2 c0 -19 -18
-44 -25 -36 -4 3 0 15 7 27 15 24 18 26 18 9z m-513 -20 c-3 -8 -6 -5 -6 6 -1
11 2 17 5 13 3 -3 4 -12 1 -19z m650 -10 c-3 -7 -5 -2 -5 12 0 14 2 19 5 13 2
-7 2 -19 0 -25z m-580 16 c-3 -3 -12 -4 -19 -1 -8 3 -5 6 6 6 11 1 17 -2 13
-5z m1221 -22 c26 -34 5 -43 -44 -17 -22 11 -24 15 -10 15 16 0 17 2 5 16 -12
15 -11 16 11 9 14 -4 31 -14 38 -23z m-1099 -8 c-17 -21 -31 -17 -17 5 7 11
16 17 20 14 5 -2 4 -11 -3 -19z m421 16 c0 -5 -5 -10 -11 -10 -5 0 -7 5 -4 10
3 6 8 10 11 10 2 0 4 -4 4 -10z m-470 -10 c0 -5 -4 -10 -10 -10 -5 0 -10 5
-10 10 0 6 5 10 10 10 6 0 10 -4 10 -10z m153 -5 c1 -6 -11 -11 -28 -13 -29
-3 -29 -3 -10 12 21 16 35 17 38 1z m104 9 c-3 -3 -12 -4 -19 -1 -8 3 -5 6 6
6 11 1 17 -2 13 -5z m932 -3 c15 -10 25 -41 13 -41 -10 1 -44 50 -35 50 4 0
14 -4 22 -9z m-982 -21 c1 -16 -1 -17 -12 -7 -7 6 -11 15 -8 20 8 13 19 7 20
-13z m63 0 c0 -7 7 -7 23 0 21 11 21 10 3 -4 -25 -20 -32 -20 -40 -1 -3 8 -1
15 4 15 6 0 10 -5 10 -10z m115 0 c3 -5 1 -10 -4 -10 -6 0 -11 5 -11 10 0 6 2
10 4 10 3 0 8 -4 11 -10z m-740 -11 c11 -17 -1 -21 -15 -4 -8 9 -8 15 -2 15 6
0 14 -5 17 -11z m1105 -10 c0 -5 -4 -9 -10 -9 -5 0 -10 7 -10 16 0 8 5 12 10
9 6 -3 10 -10 10 -16z m-1210 -9 c0 -5 -5 -10 -11 -10 -5 0 -7 5 -4 10 3 6 8
10 11 10 2 0 4 -4 4 -10z"/>
<path d="M4060 917 c0 -15 4 -27 9 -27 17 0 19 15 5 35 -13 18 -14 18 -14 -8z"/>
<path d="M4065 870 c3 -5 10 -10 16 -10 5 0 9 5 9 10 0 6 -7 10 -16 10 -8 0
-12 -4 -9 -10z"/>
<path d="M166 833 c-7 -7 13 -33 25 -33 5 0 9 6 9 14 0 15 -24 28 -34 19z"/>
<path d="M4430 665 c0 -8 7 -15 15 -15 9 0 12 6 9 15 -4 8 -10 15 -15 15 -5 0
-9 -7 -9 -15z"/>
<path d="M10 585 c0 -8 2 -15 4 -15 2 0 11 -3 20 -6 10 -4 16 -1 16 9 0 8 -7
18 -16 21 -22 9 -24 8 -24 -9z"/>
<path d="M4590 538 c1 -22 1 -22 12 -4 10 18 11 18 29 -5 11 -14 19 -18 19
-10 0 16 -29 40 -47 41 -7 0 -13 -10 -13 -22z"/>
<path d="M4640 490 c0 -12 44 -24 62 -17 8 4 7 6 -4 6 -10 1 -18 6 -18 11 0 6
-9 10 -20 10 -11 0 -20 -4 -20 -10z"/>
<path d="M4740 450 c19 -13 30 -13 30 0 0 6 -10 10 -22 10 -19 0 -20 -2 -8
-10z"/>
<path d="M4581 389 c-13 -11 -21 -23 -17 -26 4 -4 18 5 32 20 29 31 20 35 -15
6z"/>
<path d="M4810 349 c0 -5 5 -7 10 -4 6 3 10 8 10 11 0 2 -4 4 -10 4 -5 0 -10
-5 -10 -11z"/>
<path d="M4990 330 c8 -5 22 -10 30 -10 13 0 13 1 0 10 -8 5 -22 10 -30 10
-13 0 -13 -1 0 -10z"/>
<path d="M5056 287 c20 -28 39 -34 50 -16 8 14 -5 26 -40 35 l-29 7 19 -26z"/>
<path d="M4910 250 c0 -5 5 -10 10 -10 6 0 10 5 10 10 0 6 -4 10 -10 10 -5 0
-10 -4 -10 -10z"/>
<path d="M4970 211 c0 -5 5 -13 10 -16 6 -3 10 -2 10 4 0 5 -4 13 -10 16 -5 3
-10 2 -10 -4z"/>
<path d="M5130 205 c0 -8 -7 -18 -15 -23 -12 -6 23 -24 127 -65 79 -32 146
-57 151 -57 4 0 7 7 7 15 0 9 -6 12 -15 9 -9 -4 -15 0 -15 10 0 9 -8 16 -20
16 -11 0 -19 5 -17 11 1 6 -4 14 -10 16 -7 3 -13 0 -13 -6 0 -6 -4 -11 -10
-11 -6 0 -6 9 0 24 11 29 3 39 -20 26 -14 -7 -17 -6 -16 8 0 9 -5 16 -13 14
-21 -4 -55 9 -43 17 6 4 -9 8 -33 9 -33 1 -45 -2 -45 -13z"/>
<path d="M4826 62 c-3 -5 15 -15 39 -22 25 -7 48 -17 51 -21 3 -5 10 -9 15 -9
21 0 -12 38 -38 44 -16 4 -35 9 -45 12 -9 3 -19 1 -22 -4z"/>
<path d="M4938 53 c7 -3 16 -2 19 1 4 3 -2 6 -13 5 -11 0 -14 -3 -6 -6z"/>
</g>
</svg>
